<svg width="512" height="512" version="1.1" xmlns="http://www.w3.org/2000/svg" desc="Created with imagetracer.js version 1.2.6" ><path fill="rgb(0,0,0)" stroke="rgb(0,0,0)" stroke-width="1" opacity="0" d="M 0 0 L 511.5 0 L 512 0.5 L 512 82.5 L 511 82.5 L 510 79.5 L 448.5 18 Q 444.5 15 437.5 15 L 427.5 19 L 368 78.5 Q 364.3 81.3 365 88.5 Q 366.5 95 371.5 98 L 379.5 100 L 387.5 96 L 425.5 58 L 426 75.5 L 425 76.5 L 424 101.5 L 423 102.5 L 423 109.5 L 422 110.5 L 420 128.5 L 415 151.5 L 405 182.5 Q 387.4 227.4 355.5 258 Q 329.3 283.6 291 296 L 297 268.5 L 299 246.5 L 300 245.5 L 300 207.5 L 295 180.5 L 286 159.5 Q 275.5 142.5 260.5 130 Q 245.9 117.1 225.5 110 L 207.5 106 L 185.5 106 L 166.5 110 L 151.5 116 Q 131.3 126.3 117 142.5 Q 102.7 158.2 95 180.5 L 91 198.5 L 91 223.5 L 95 241.5 L 104 261.5 Q 113.8 278.2 127.5 291 Q 150.9 312.6 185.5 323 L 214.5 329 L 251 330 Q 227.6 387.8 183.5 426 Q 159.8 447.3 127.5 460 L 108.5 466 L 87.5 470 L 78.5 470 L 77.5 471 L 49.5 471 L 48.5 470 L 39.5 470 L 15.5 465 L 10.5 465 L 3 469.5 L 0.5 475 L 0 0 Z " /><path fill="rgb(0,0,0)" stroke="rgb(0,0,0)" stroke-width="1" opacity="0" d="M 452.5 58 L 492.5 98 L 500.5 100 L 504.5 99 L 509 95.5 L 511.5 91 L 512 512 L 0.5 512 L 0 511.5 L 0 481.5 L 1 481.5 L 4.5 488 L 10.5 491 L 33.5 495 L 55.5 496 L 56.5 497 L 71.5 497 L 72.5 496 L 93.5 495 L 109.5 492 L 143.5 481 Q 186.2 462.2 216 430.5 Q 258.4 387.1 281 325 Q 311.3 319 334.5 305 Q 359.7 290.7 379 270.5 Q 412.6 235.6 431 185.5 L 441 152.5 L 445 133.5 L 448 108.5 L 449 107.5 L 449 98.5 L 450 97.5 L 451 64.5 L 452.5 58 Z " /><path fill="rgb(0,0,0)" stroke="rgb(0,0,0)" stroke-width="1" opacity="0" d="M 194.5 131 L 212.5 133 L 228.5 139 Q 245.2 148.3 257 162.5 Q 267.8 174.7 272 193.5 L 273 204.5 L 274 205.5 L 274 214.5 L 275 215.5 L 275 236.5 L 274 237.5 L 274 248.5 L 273 249.5 L 271 268.5 L 262 303 L 254.5 303 L 253.5 304 L 223.5 304 L 222.5 303 L 214.5 303 L 203.5 301 L 175.5 292 Q 154.8 282.7 140 267.5 Q 128.3 255.2 121 238.5 L 116 218.5 L 116 203.5 Q 121.7 170.7 142.5 153 Q 153.8 142.3 169.5 136 L 179.5 133 L 193.5 132 L 194.5 131 Z " /><path fill="rgb(0,0,0)" stroke="rgb(0,0,0)" stroke-width="1" opacity="0.7764705882352941" d="M 437.5 15 L 441 15.5 L 437.5 16 L 437.5 15 Z " /><path fill="rgb(0,0,0)" stroke="rgb(0,0,0)" stroke-width="1" opacity="0.7764705882352941" d="M 430.5 17 L 429.5 19 L 430.5 17 Z " /><path fill="rgb(0,0,0)" stroke="rgb(0,0,0)" stroke-width="1" opacity="0.7764705882352941" d="M 448.5 18 L 509.5 80 L 448.5 18 Z " /><path fill="rgb(0,0,0)" stroke="rgb(0,0,0)" stroke-width="1" opacity="0.7764705882352941" d="M 427.5 19 L 368.5 79 L 427.5 19 Z " /><path fill="rgb(0,0,0)" stroke="rgb(0,0,0)" stroke-width="1" opacity="0.7764705882352941" d="M 425.5 57 Q 428.1 56.2 427 59.5 L 426 59.5 L 425.5 58 L 387 95.5 L 425.5 57 Z " /><path fill="rgb(0,0,0)" stroke="rgb(0,0,0)" stroke-width="1" opacity="0.7764705882352941" d="M 451.5 57 L 452 63.5 L 451 63.5 L 451.5 57 Z " /><path fill="rgb(0,0,0)" stroke="rgb(0,0,0)" stroke-width="1" opacity="0.7764705882352941" d="M 453.5 58 L 463.5 69 L 453.5 58 Z " /><path fill="rgb(0,0,0)" stroke="rgb(0,0,0)" stroke-width="1" opacity="0.7764705882352941" d="M 467.5 72 L 471.5 77 L 467.5 72 Z " /><path fill="rgb(0,0,0)" stroke="rgb(0,0,0)" stroke-width="1" opacity="0.7764705882352941" d="M 425.5 76 L 426 84.5 L 425 84.5 L 425.5 76 Z " /><path fill="rgb(0,0,0)" stroke="rgb(0,0,0)" stroke-width="1" opacity="0.7764705882352941" d="M 450.5 78 L 451 85.5 L 450 85.5 L 450.5 78 Z " /><path fill="rgb(0,0,0)" stroke="rgb(0,0,0)" stroke-width="1" opacity="0.7764705882352941" d="M 367.5 80 L 367 81.5 L 366.5 83 L 366 81.5 L 367.5 80 Z " /><path fill="rgb(0,0,0)" stroke="rgb(0,0,0)" stroke-width="1" opacity="0.7764705882352941" d="M 475.5 80 L 476.5 82 L 475.5 80 Z " /><path fill="rgb(0,0,0)" stroke="rgb(0,0,0)" stroke-width="1" opacity="0.7764705882352941" d="M 511.5 83 L 512 85.5 L 511 85.5 L 511.5 83 Z " /><path fill="rgb(0,0,0)" stroke="rgb(0,0,0)" stroke-width="1" opacity="0.7764705882352941" d="M 365.5 84 L 366 88.5 L 365 88.5 L 365.5 84 Z " /><path fill="rgb(0,0,0)" stroke="rgb(0,0,0)" stroke-width="1" opacity="0.7764705882352941" d="M 482.5 87 L 483.5 89 L 482.5 87 Z " /><path fill="rgb(0,0,0)" stroke="rgb(0,0,0)" stroke-width="1" opacity="0.7764705882352941" d="M 511.5 88 L 512 90.5 L 511 90.5 L 511.5 88 Z " /><path fill="rgb(0,0,0)" stroke="rgb(0,0,0)" stroke-width="1" opacity="0.7764705882352941" d="M 424.5 91 L 425 95.5 L 424 95.5 L 424.5 91 Z " /><path fill="rgb(0,0,0)" stroke="rgb(0,0,0)" stroke-width="1" opacity="0.7764705882352941" d="M 449.5 93 L 450 97.5 L 449 97.5 L 449.5 93 Z " /><path fill="rgb(0,0,0)" stroke="rgb(0,0,0)" stroke-width="1" opacity="0.7764705882352941" d="M 490.5 95 L 492.5 98 L 490.5 95 Z " /><path fill="rgb(0,0,0)" stroke="rgb(0,0,0)" stroke-width="1" opacity="0.7764705882352941" d="M 508.5 95 L 507.5 97 L 508.5 95 Z " /><path fill="rgb(0,0,0)" stroke="rgb(0,0,0)" stroke-width="1" opacity="0.7764705882352941" d="M 505.5 97 L 504.5 99 L 503 98.5 L 505.5 97 Z " /><path fill="rgb(0,0,0)" stroke="rgb(0,0,0)" stroke-width="1" opacity="0.7764705882352941" d="M 376.5 99 L 380 99.5 L 376.5 100 L 376.5 99 Z " /><path fill="rgb(0,0,0)" stroke="rgb(0,0,0)" stroke-width="1" opacity="0.7764705882352941" d="M 498.5 99 L 501 99.5 L 498.5 100 L 498.5 99 Z " /><path fill="rgb(0,0,0)" stroke="rgb(0,0,0)" stroke-width="1" opacity="0.7764705882352941" d="M 423.5 102 L 424 105.5 L 423 105.5 L 423.5 102 Z " /><path fill="rgb(0,0,0)" stroke="rgb(0,0,0)" stroke-width="1" opacity="0.7764705882352941" d="M 448.5 103 L 449 107.5 L 448 107.5 L 448.5 103 Z " /><path fill="rgb(0,0,0)" stroke="rgb(0,0,0)" stroke-width="1" opacity="0.7764705882352941" d="M 185.5 106 L 191 106.5 L 185.5 107 L 185.5 106 Z " /><path fill="rgb(0,0,0)" stroke="rgb(0,0,0)" stroke-width="1" opacity="0.7764705882352941" d="M 203.5 106 L 208 106.5 L 203.5 107 L 203.5 106 Z " /><path fill="rgb(0,0,0)" stroke="rgb(0,0,0)" stroke-width="1" opacity="0.7764705882352941" d="M 211.5 107 L 214 107.5 L 211.5 108 L 211.5 107 Z " /><path fill="rgb(0,0,0)" stroke="rgb(0,0,0)" stroke-width="1" opacity="0.7764705882352941" d="M 422.5 110 L 423 113.5 L 422 113.5 L 422.5 110 Z " /><path fill="rgb(0,0,0)" stroke="rgb(0,0,0)" stroke-width="1" opacity="0.7764705882352941" d="M 447.5 112 L 448 114.5 L 447 114.5 L 447.5 112 Z " /><path fill="rgb(0,0,0)" stroke="rgb(0,0,0)" stroke-width="1" opacity="0.7764705882352941" d="M 151.5 116 L 153 116.5 L 150.5 118 L 151.5 116 Z " /><path fill="rgb(0,0,0)" stroke="rgb(0,0,0)" stroke-width="1" opacity="0.7764705882352941" d="M 421.5 117 L 422 119.5 L 421 119.5 L 421.5 117 Z " /><path fill="rgb(0,0,0)" stroke="rgb(0,0,0)" stroke-width="1" opacity="0.7764705882352941" d="M 243.5 118 L 244.5 120 L 243.5 118 Z " /><path fill="rgb(0,0,0)" stroke="rgb(0,0,0)" stroke-width="1" opacity="0.7764705882352941" d="M 446.5 119 L 447 121.5 L 446 121.5 L 446.5 119 Z " /><path fill="rgb(0,0,0)" stroke="rgb(0,0,0)" stroke-width="1" opacity="0.7764705882352941" d="M 248.5 121 L 249.5 123 L 248.5 121 Z " /><path fill="rgb(0,0,0)" stroke="rgb(0,0,0)" stroke-width="1" opacity="0.7764705882352941" d="M 139.5 123 L 138.5 125 L 139.5 123 Z " /><path fill="rgb(0,0,0)" stroke="rgb(0,0,0)" stroke-width="1" opacity="0.7764705882352941" d="M 251.5 123 L 252.5 125 L 251.5 123 Z " /><path fill="rgb(0,0,0)" stroke="rgb(0,0,0)" stroke-width="1" opacity="0.7764705882352941" d="M 420.5 123 L 421 125.5 L 420 125.5 L 420.5 123 Z " /><path fill="rgb(0,0,0)" stroke="rgb(0,0,0)" stroke-width="1" opacity="0.7764705882352941" d="M 136.5 125 L 135.5 127 L 136.5 125 Z " /><path fill="rgb(0,0,0)" stroke="rgb(0,0,0)" stroke-width="1" opacity="0.7764705882352941" d="M 445.5 125 L 446 127.5 L 445 127.5 L 445.5 125 Z " /><path fill="rgb(0,0,0)" stroke="rgb(0,0,0)" stroke-width="1" opacity="0.7764705882352941" d="M 255.5 126 L 257.5 129 L 255.5 126 Z " /><path fill="rgb(0,0,0)" stroke="rgb(0,0,0)" stroke-width="1" opacity="0.7764705882352941" d="M 132.5 128 L 130.5 131 L 132.5 128 Z " /><path fill="rgb(0,0,0)" stroke="rgb(0,0,0)" stroke-width="1" opacity="0.7764705882352941" d="M 419.5 129 L 420 131.5 L 419 131.5 L 419.5 129 Z " /><path fill="rgb(0,0,0)" stroke="rgb(0,0,0)" stroke-width="1" opacity="0.7764705882352941" d="M 260.5 130 L 266.5 137 L 260.5 130 Z " /><path fill="rgb(0,0,0)" stroke="rgb(0,0,0)" stroke-width="1" opacity="0.7764705882352941" d="M 187.5 131 L 194 131.5 L 187.5 132 L 187.5 131 Z " /><path fill="rgb(0,0,0)" stroke="rgb(0,0,0)" stroke-width="1" opacity="0.7764705882352941" d="M 199.5 131 L 205 131.5 L 199.5 132 L 199.5 131 Z " /><path fill="rgb(0,0,0)" stroke="rgb(0,0,0)" stroke-width="1" opacity="0.7764705882352941" d="M 444.5 131 L 445 133.5 L 444 133.5 L 444.5 131 Z " /><path fill="rgb(0,0,0)" stroke="rgb(0,0,0)" stroke-width="1" opacity="0.7764705882352941" d="M 181.5 132 L 184 132.5 L 181.5 133 L 181.5 132 Z " /><path fill="rgb(0,0,0)" stroke="rgb(0,0,0)" stroke-width="1" opacity="0.7764705882352941" d="M 208.5 132 L 211 132.5 L 208.5 133 L 208.5 132 Z " /><path fill="rgb(0,0,0)" stroke="rgb(0,0,0)" stroke-width="1" opacity="0.7764705882352941" d="M 125.5 134 L 117.5 143 L 125.5 134 Z " /><path fill="rgb(0,0,0)" stroke="rgb(0,0,0)" stroke-width="1" opacity="0.7764705882352941" d="M 418.5 134 L 419 136.5 L 418 136.5 L 418.5 134 Z " /><path fill="rgb(0,0,0)" stroke="rgb(0,0,0)" stroke-width="1" opacity="0.7764705882352941" d="M 443.5 136 L 444 138.5 L 443 138.5 L 443.5 136 Z " /><path fill="rgb(0,0,0)" stroke="rgb(0,0,0)" stroke-width="1" opacity="0.7764705882352941" d="M 229.5 139 L 230.5 141 L 229.5 139 Z " /><path fill="rgb(0,0,0)" stroke="rgb(0,0,0)" stroke-width="1" opacity="0.7764705882352941" d="M 270.5 140 L 275.5 146 L 270.5 140 Z " /><path fill="rgb(0,0,0)" stroke="rgb(0,0,0)" stroke-width="1" opacity="0.7764705882352941" d="M 156.5 142 L 155.5 144 L 156.5 142 Z " /><path fill="rgb(0,0,0)" stroke="rgb(0,0,0)" stroke-width="1" opacity="0.7764705882352941" d="M 234.5 142 L 235.5 144 L 234.5 142 Z " /><path fill="rgb(0,0,0)" stroke="rgb(0,0,0)" stroke-width="1" opacity="0.7764705882352941" d="M 416.5 143 L 417 145.5 L 416 145.5 L 416.5 143 Z " /><path fill="rgb(0,0,0)" stroke="rgb(0,0,0)" stroke-width="1" opacity="0.7764705882352941" d="M 237.5 144 L 238.5 146 L 237.5 144 Z " /><path fill="rgb(0,0,0)" stroke="rgb(0,0,0)" stroke-width="1" opacity="0.7764705882352941" d="M 115.5 145 L 113.5 148 L 115.5 145 Z " /><path fill="rgb(0,0,0)" stroke="rgb(0,0,0)" stroke-width="1" opacity="0.7764705882352941" d="M 150.5 146 L 149.5 148 L 150.5 146 Z " /><path fill="rgb(0,0,0)" stroke="rgb(0,0,0)" stroke-width="1" opacity="0.7764705882352941" d="M 241.5 147 L 243.5 150 L 241.5 147 Z " /><path fill="rgb(0,0,0)" stroke="rgb(0,0,0)" stroke-width="1" opacity="0.7764705882352941" d="M 277.5 148 L 279.5 151 L 277.5 148 Z " /><path fill="rgb(0,0,0)" stroke="rgb(0,0,0)" stroke-width="1" opacity="0.7764705882352941" d="M 146.5 149 L 143.5 153 L 146.5 149 Z " /><path fill="rgb(0,0,0)" stroke="rgb(0,0,0)" stroke-width="1" opacity="0.7764705882352941" d="M 111.5 150 L 110.5 152 L 111.5 150 Z " /><path fill="rgb(0,0,0)" stroke="rgb(0,0,0)" stroke-width="1" opacity="0.7764705882352941" d="M 440.5 150 L 441 152.5 L 440 152.5 L 440.5 150 Z " /><path fill="rgb(0,0,0)" stroke="rgb(0,0,0)" stroke-width="1" opacity="0.7764705882352941" d="M 246.5 151 L 253.5 159 L 246.5 151 Z " /><path fill="rgb(0,0,0)" stroke="rgb(0,0,0)" stroke-width="1" opacity="0.7764705882352941" d="M 281.5 153 L 282.5 155 L 281.5 153 Z " /><path fill="rgb(0,0,0)" stroke="rgb(0,0,0)" stroke-width="1" opacity="0.7764705882352941" d="M 107.5 156 L 106.5 158 L 107.5 156 Z " /><path fill="rgb(0,0,0)" stroke="rgb(0,0,0)" stroke-width="1" opacity="0.7764705882352941" d="M 105.5 159 L 104.5 161 L 105.5 159 Z " /><path fill="rgb(0,0,0)" stroke="rgb(0,0,0)" stroke-width="1" opacity="0.7764705882352941" d="M 136.5 159 L 133.5 163 L 136.5 159 Z " /><path fill="rgb(0,0,0)" stroke="rgb(0,0,0)" stroke-width="1" opacity="0.7764705882352941" d="M 257.5 163 L 259.5 166 L 257.5 163 Z " /><path fill="rgb(0,0,0)" stroke="rgb(0,0,0)" stroke-width="1" opacity="0.7764705882352941" d="M 131.5 165 L 130.5 167 L 131.5 165 Z " /><path fill="rgb(0,0,0)" stroke="rgb(0,0,0)" stroke-width="1" opacity="0.7764705882352941" d="M 260.5 167 L 261.5 169 L 260.5 167 Z " /><path fill="rgb(0,0,0)" stroke="rgb(0,0,0)" stroke-width="1" opacity="0.7764705882352941" d="M 129.5 168 L 128.5 170 L 129.5 168 Z " /><path fill="rgb(0,0,0)" stroke="rgb(0,0,0)" stroke-width="1" opacity="0.7764705882352941" d="M 127.5 171 L 126.5 173 L 127.5 171 Z " /><path fill="rgb(0,0,0)" stroke="rgb(0,0,0)" stroke-width="1" opacity="0.7764705882352941" d="M 93.5 187 L 94 189.5 L 93 189.5 L 93.5 187 Z " /><path fill="rgb(0,0,0)" stroke="rgb(0,0,0)" stroke-width="1" opacity="0.7764705882352941" d="M 91.5 198 L 92 201.5 L 91 201.5 L 91.5 198 Z " /><path fill="rgb(0,0,0)" stroke="rgb(0,0,0)" stroke-width="1" opacity="0.7764705882352941" d="M 298.5 199 L 299 201.5 L 298 201.5 L 298.5 199 Z " /><path fill="rgb(0,0,0)" stroke="rgb(0,0,0)" stroke-width="1" opacity="0.7764705882352941" d="M 116.5 200 L 117 202.5 L 116 202.5 L 116.5 200 Z " /><path fill="rgb(0,0,0)" stroke="rgb(0,0,0)" stroke-width="1" opacity="0.7764705882352941" d="M 273.5 201 L 274 204.5 L 273 204.5 L 273.5 201 Z " /><path fill="rgb(0,0,0)" stroke="rgb(0,0,0)" stroke-width="1" opacity="0.7764705882352941" d="M 299.5 207 L 300 212.5 L 299 212.5 L 299.5 207 Z " /><path fill="rgb(0,0,0)" stroke="rgb(0,0,0)" stroke-width="1" opacity="0.7764705882352941" d="M 274.5 209 L 275 214.5 L 274 214.5 L 274.5 209 Z " /><path fill="rgb(0,0,0)" stroke="rgb(0,0,0)" stroke-width="1" opacity="0.7764705882352941" d="M 392.5 209 L 391.5 211 L 392.5 209 Z " /><path fill="rgb(0,0,0)" stroke="rgb(0,0,0)" stroke-width="1" opacity="0.7764705882352941" d="M 418.5 213 L 417.5 215 L 418.5 213 Z " /><path fill="rgb(0,0,0)" stroke="rgb(0,0,0)" stroke-width="1" opacity="0.7764705882352941" d="M 388.5 216 L 387.5 218 L 388.5 216 Z " /><path fill="rgb(0,0,0)" stroke="rgb(0,0,0)" stroke-width="1" opacity="0.7764705882352941" d="M 116.5 219 L 117 221.5 L 116 221.5 L 116.5 219 Z " /><path fill="rgb(0,0,0)" stroke="rgb(0,0,0)" stroke-width="1" opacity="0.7764705882352941" d="M 91.5 220 L 92 223.5 L 91 223.5 L 91.5 220 Z " /><path fill="rgb(0,0,0)" stroke="rgb(0,0,0)" stroke-width="1" opacity="0.7764705882352941" d="M 385.5 221 L 384.5 223 L 385.5 221 Z " /><path fill="rgb(0,0,0)" stroke="rgb(0,0,0)" stroke-width="1" opacity="0.7764705882352941" d="M 383.5 224 L 382.5 226 L 383.5 224 Z " /><path fill="rgb(0,0,0)" stroke="rgb(0,0,0)" stroke-width="1" opacity="0.7764705882352941" d="M 411.5 226 L 410.5 228 L 411.5 226 Z " /><path fill="rgb(0,0,0)" stroke="rgb(0,0,0)" stroke-width="1" opacity="0.7764705882352941" d="M 381.5 227 L 380.5 229 L 381.5 227 Z " /><path fill="rgb(0,0,0)" stroke="rgb(0,0,0)" stroke-width="1" opacity="0.7764705882352941" d="M 379.5 230 L 377.5 233 L 379.5 230 Z " /><path fill="rgb(0,0,0)" stroke="rgb(0,0,0)" stroke-width="1" opacity="0.7764705882352941" d="M 408.5 231 L 407.5 233 L 408.5 231 Z " /><path fill="rgb(0,0,0)" stroke="rgb(0,0,0)" stroke-width="1" opacity="0.7764705882352941" d="M 376.5 234 L 374.5 237 L 376.5 234 Z " /><path fill="rgb(0,0,0)" stroke="rgb(0,0,0)" stroke-width="1" opacity="0.7764705882352941" d="M 274.5 237 L 275 243.5 L 274 243.5 L 274.5 237 Z " /><path fill="rgb(0,0,0)" stroke="rgb(0,0,0)" stroke-width="1" opacity="0.7764705882352941" d="M 299.5 239 L 300 245.5 L 299 245.5 L 299.5 239 Z " /><path fill="rgb(0,0,0)" stroke="rgb(0,0,0)" stroke-width="1" opacity="0.7764705882352941" d="M 372.5 239 L 370.5 242 L 372.5 239 Z " /><path fill="rgb(0,0,0)" stroke="rgb(0,0,0)" stroke-width="1" opacity="0.7764705882352941" d="M 368.5 244 L 363.5 250 L 368.5 244 Z " /><path fill="rgb(0,0,0)" stroke="rgb(0,0,0)" stroke-width="1" opacity="0.7764705882352941" d="M 398.5 246 L 397.5 248 L 398.5 246 Z " /><path fill="rgb(0,0,0)" stroke="rgb(0,0,0)" stroke-width="1" opacity="0.7764705882352941" d="M 126.5 249 L 127.5 251 L 126.5 249 Z " /><path fill="rgb(0,0,0)" stroke="rgb(0,0,0)" stroke-width="1" opacity="0.7764705882352941" d="M 273.5 249 L 274 252.5 L 273 252.5 L 273.5 249 Z " /><path fill="rgb(0,0,0)" stroke="rgb(0,0,0)" stroke-width="1" opacity="0.7764705882352941" d="M 395.5 250 L 394.5 252 L 395.5 250 Z " /><path fill="rgb(0,0,0)" stroke="rgb(0,0,0)" stroke-width="1" opacity="0.7764705882352941" d="M 298.5 251 L 299 254.5 L 298 254.5 L 298.5 251 Z " /><path fill="rgb(0,0,0)" stroke="rgb(0,0,0)" stroke-width="1" opacity="0.7764705882352941" d="M 392.5 254 L 390.5 257 L 392.5 254 Z " /><path fill="rgb(0,0,0)" stroke="rgb(0,0,0)" stroke-width="1" opacity="0.7764705882352941" d="M 272.5 257 L 273 259.5 L 272 259.5 L 272.5 257 Z " /><path fill="rgb(0,0,0)" stroke="rgb(0,0,0)" stroke-width="1" opacity="0.7764705882352941" d="M 132.5 258 L 133.5 260 L 132.5 258 Z " /><path fill="rgb(0,0,0)" stroke="rgb(0,0,0)" stroke-width="1" opacity="0.7764705882352941" d="M 354.5 258 L 349.5 264 L 354.5 258 Z " /><path fill="rgb(0,0,0)" stroke="rgb(0,0,0)" stroke-width="1" opacity="0.7764705882352941" d="M 297.5 259 L 298 261.5 L 297 261.5 L 297.5 259 Z " /><path fill="rgb(0,0,0)" stroke="rgb(0,0,0)" stroke-width="1" opacity="0.7764705882352941" d="M 387.5 260 L 384.5 264 L 387.5 260 Z " /><path fill="rgb(0,0,0)" stroke="rgb(0,0,0)" stroke-width="1" opacity="0.7764705882352941" d="M 104.5 261 L 105.5 263 L 104.5 261 Z " /><path fill="rgb(0,0,0)" stroke="rgb(0,0,0)" stroke-width="1" opacity="0.7764705882352941" d="M 135.5 262 L 139.5 267 L 135.5 262 Z " /><path fill="rgb(0,0,0)" stroke="rgb(0,0,0)" stroke-width="1" opacity="0.7764705882352941" d="M 271.5 263 L 272 265.5 L 271 265.5 L 271.5 263 Z " /><path fill="rgb(0,0,0)" stroke="rgb(0,0,0)" stroke-width="1" opacity="0.7764705882352941" d="M 346.5 265 L 344.5 268 L 346.5 265 Z " /><path fill="rgb(0,0,0)" stroke="rgb(0,0,0)" stroke-width="1" opacity="0.7764705882352941" d="M 107.5 266 L 108.5 268 L 107.5 266 Z " /><path fill="rgb(0,0,0)" stroke="rgb(0,0,0)" stroke-width="1" opacity="0.7764705882352941" d="M 296.5 266 L 297 268.5 L 296 268.5 L 296.5 266 Z " /><path fill="rgb(0,0,0)" stroke="rgb(0,0,0)" stroke-width="1" opacity="0.7764705882352941" d="M 109.5 269 L 110.5 271 L 109.5 269 Z " /><path fill="rgb(0,0,0)" stroke="rgb(0,0,0)" stroke-width="1" opacity="0.7764705882352941" d="M 341.5 269 L 339.5 272 L 341.5 269 Z " /><path fill="rgb(0,0,0)" stroke="rgb(0,0,0)" stroke-width="1" opacity="0.7764705882352941" d="M 378.5 270 L 376.5 273 L 378.5 270 Z " /><path fill="rgb(0,0,0)" stroke="rgb(0,0,0)" stroke-width="1" opacity="0.7764705882352941" d="M 145.5 272 L 148.5 276 L 145.5 272 Z " /><path fill="rgb(0,0,0)" stroke="rgb(0,0,0)" stroke-width="1" opacity="0.7764705882352941" d="M 337.5 272 L 336.5 274 L 337.5 272 Z " /><path fill="rgb(0,0,0)" stroke="rgb(0,0,0)" stroke-width="1" opacity="0.7764705882352941" d="M 112.5 273 L 113.5 275 L 112.5 273 Z " /><path fill="rgb(0,0,0)" stroke="rgb(0,0,0)" stroke-width="1" opacity="0.7764705882352941" d="M 115.5 277 L 118.5 281 L 115.5 277 Z " /><path fill="rgb(0,0,0)" stroke="rgb(0,0,0)" stroke-width="1" opacity="0.7764705882352941" d="M 151.5 277 L 152.5 279 L 151.5 277 Z " /><path fill="rgb(0,0,0)" stroke="rgb(0,0,0)" stroke-width="1" opacity="0.7764705882352941" d="M 328.5 278 L 327.5 280 L 328.5 278 Z " /><path fill="rgb(0,0,0)" stroke="rgb(0,0,0)" stroke-width="1" opacity="0.7764705882352941" d="M 368.5 279 L 364.5 284 L 368.5 279 Z " /><path fill="rgb(0,0,0)" stroke="rgb(0,0,0)" stroke-width="1" opacity="0.7764705882352941" d="M 155.5 280 L 156.5 282 L 155.5 280 Z " /><path fill="rgb(0,0,0)" stroke="rgb(0,0,0)" stroke-width="1" opacity="0.7764705882352941" d="M 323.5 281 L 322.5 283 L 323.5 281 Z " /><path fill="rgb(0,0,0)" stroke="rgb(0,0,0)" stroke-width="1" opacity="0.7764705882352941" d="M 158.5 282 L 159.5 284 L 158.5 282 Z " /><path fill="rgb(0,0,0)" stroke="rgb(0,0,0)" stroke-width="1" opacity="0.7764705882352941" d="M 121.5 284 L 127.5 291 L 121.5 284 Z " /><path fill="rgb(0,0,0)" stroke="rgb(0,0,0)" stroke-width="1" opacity="0.7764705882352941" d="M 361.5 285 L 359.5 288 L 361.5 285 Z " /><path fill="rgb(0,0,0)" stroke="rgb(0,0,0)" stroke-width="1" opacity="0.7764705882352941" d="M 356.5 289 L 354.5 292 L 356.5 289 Z " /><path fill="rgb(0,0,0)" stroke="rgb(0,0,0)" stroke-width="1" opacity="0.7764705882352941" d="M 352.5 292 L 351.5 294 L 352.5 292 Z " /><path fill="rgb(0,0,0)" stroke="rgb(0,0,0)" stroke-width="1" opacity="0.7764705882352941" d="M 131.5 293 L 134.5 297 L 131.5 293 Z " /><path fill="rgb(0,0,0)" stroke="rgb(0,0,0)" stroke-width="1" opacity="0.7764705882352941" d="M 290.5 294 L 291 296.5 L 290 296.5 L 290.5 294 Z " /><path fill="rgb(0,0,0)" stroke="rgb(0,0,0)" stroke-width="1" opacity="0.7764705882352941" d="M 348.5 295 L 347.5 297 L 348.5 295 Z " /><path fill="rgb(0,0,0)" stroke="rgb(0,0,0)" stroke-width="1" opacity="0.7764705882352941" d="M 345.5 297 L 344.5 299 L 345.5 297 Z " /><path fill="rgb(0,0,0)" stroke="rgb(0,0,0)" stroke-width="1" opacity="0.7764705882352941" d="M 137.5 298 L 138.5 300 L 137.5 298 Z " /><path fill="rgb(0,0,0)" stroke="rgb(0,0,0)" stroke-width="1" opacity="0.7764705882352941" d="M 211.5 302 L 214 302.5 L 211.5 303 L 211.5 302 Z " /><path fill="rgb(0,0,0)" stroke="rgb(0,0,0)" stroke-width="1" opacity="0.7764705882352941" d="M 144.5 303 L 145.5 305 L 144.5 303 Z " /><path fill="rgb(0,0,0)" stroke="rgb(0,0,0)" stroke-width="1" opacity="0.7764705882352941" d="M 218.5 303 L 223 303.5 L 218.5 304 L 218.5 303 Z " /><path fill="rgb(0,0,0)" stroke="rgb(0,0,0)" stroke-width="1" opacity="0.7764705882352941" d="M 254.5 303 L 259 303.5 L 254.5 304 L 254.5 303 Z " /><path fill="rgb(0,0,0)" stroke="rgb(0,0,0)" stroke-width="1" opacity="0.7764705882352941" d="M 335.5 303 L 334.5 305 L 335.5 303 Z " /><path fill="rgb(0,0,0)" stroke="rgb(0,0,0)" stroke-width="1" opacity="0.7764705882352941" d="M 230.5 304 L 247 304.5 L 230.5 305 L 230.5 304 Z " /><path fill="rgb(0,0,0)" stroke="rgb(0,0,0)" stroke-width="1" opacity="0.7764705882352941" d="M 149.5 306 L 150.5 308 L 149.5 306 Z " /><path fill="rgb(0,0,0)" stroke="rgb(0,0,0)" stroke-width="1" opacity="0.7764705882352941" d="M 208.5 327 L 211 327.5 L 208.5 328 L 208.5 327 Z " /><path fill="rgb(0,0,0)" stroke="rgb(0,0,0)" stroke-width="1" opacity="0.7764705882352941" d="M 214.5 328 L 219 328.5 L 214.5 329 L 214.5 328 Z " /><path fill="rgb(0,0,0)" stroke="rgb(0,0,0)" stroke-width="1" opacity="0.7764705882352941" d="M 225.5 329 L 251.5 329 L 252 331.5 L 251 331.5 L 250.5 330 L 225.5 330 L 225.5 329 Z " /><path fill="rgb(0,0,0)" stroke="rgb(0,0,0)" stroke-width="1" opacity="0.7764705882352941" d="M 267.5 355 L 268 356.5 L 266 357.5 L 267.5 355 Z " /><path fill="rgb(0,0,0)" stroke="rgb(0,0,0)" stroke-width="1" opacity="0.7764705882352941" d="M 238.5 357 L 237.5 359 L 238.5 357 Z " /><path fill="rgb(0,0,0)" stroke="rgb(0,0,0)" stroke-width="1" opacity="0.7764705882352941" d="M 234.5 364 L 233.5 366 L 234.5 364 Z " /><path fill="rgb(0,0,0)" stroke="rgb(0,0,0)" stroke-width="1" opacity="0.7764705882352941" d="M 231.5 369 L 230.5 371 L 231.5 369 Z " /><path fill="rgb(0,0,0)" stroke="rgb(0,0,0)" stroke-width="1" opacity="0.7764705882352941" d="M 259.5 371 L 258.5 373 L 259.5 371 Z " /><path fill="rgb(0,0,0)" stroke="rgb(0,0,0)" stroke-width="1" opacity="0.7764705882352941" d="M 229.5 372 L 228.5 374 L 229.5 372 Z " /><path fill="rgb(0,0,0)" stroke="rgb(0,0,0)" stroke-width="1" opacity="0.7764705882352941" d="M 227.5 375 L 226.5 377 L 227.5 375 Z " /><path fill="rgb(0,0,0)" stroke="rgb(0,0,0)" stroke-width="1" opacity="0.7764705882352941" d="M 256.5 376 L 255.5 378 L 256.5 376 Z " /><path fill="rgb(0,0,0)" stroke="rgb(0,0,0)" stroke-width="1" opacity="0.7764705882352941" d="M 225.5 378 L 224.5 380 L 225.5 378 Z " /><path fill="rgb(0,0,0)" stroke="rgb(0,0,0)" stroke-width="1" opacity="0.7764705882352941" d="M 223.5 381 L 222.5 383 L 223.5 381 Z " /><path fill="rgb(0,0,0)" stroke="rgb(0,0,0)" stroke-width="1" opacity="0.7764705882352941" d="M 253.5 381 L 252.5 383 L 253.5 381 Z " /><path fill="rgb(0,0,0)" stroke="rgb(0,0,0)" stroke-width="1" opacity="0.7764705882352941" d="M 220.5 385 L 219.5 387 L 220.5 385 Z " /><path fill="rgb(0,0,0)" stroke="rgb(0,0,0)" stroke-width="1" opacity="0.7764705882352941" d="M 218.5 388 L 216.5 391 L 218.5 388 Z " /><path fill="rgb(0,0,0)" stroke="rgb(0,0,0)" stroke-width="1" opacity="0.7764705882352941" d="M 246.5 392 L 245.5 394 L 246.5 392 Z " /><path fill="rgb(0,0,0)" stroke="rgb(0,0,0)" stroke-width="1" opacity="0.7764705882352941" d="M 214.5 393 L 213.5 395 L 214.5 393 Z " /><path fill="rgb(0,0,0)" stroke="rgb(0,0,0)" stroke-width="1" opacity="0.7764705882352941" d="M 243.5 396 L 242.5 398 L 243.5 396 Z " /><path fill="rgb(0,0,0)" stroke="rgb(0,0,0)" stroke-width="1" opacity="0.7764705882352941" d="M 210.5 398 L 208.5 401 L 210.5 398 Z " /><path fill="rgb(0,0,0)" stroke="rgb(0,0,0)" stroke-width="1" opacity="0.7764705882352941" d="M 241.5 399 L 240.5 401 L 241.5 399 Z " /><path fill="rgb(0,0,0)" stroke="rgb(0,0,0)" stroke-width="1" opacity="0.7764705882352941" d="M 238.5 403 L 237.5 405 L 238.5 403 Z " /><path fill="rgb(0,0,0)" stroke="rgb(0,0,0)" stroke-width="1" opacity="0.7764705882352941" d="M 204.5 405 L 185.5 425 L 204.5 405 Z " /><path fill="rgb(0,0,0)" stroke="rgb(0,0,0)" stroke-width="1" opacity="0.7764705882352941" d="M 235.5 407 L 233.5 410 L 235.5 407 Z " /><path fill="rgb(0,0,0)" stroke="rgb(0,0,0)" stroke-width="1" opacity="0.7764705882352941" d="M 231.5 412 L 229.5 415 L 231.5 412 Z " /><path fill="rgb(0,0,0)" stroke="rgb(0,0,0)" stroke-width="1" opacity="0.7764705882352941" d="M 226.5 418 L 221.5 424 L 226.5 418 Z " /><path fill="rgb(0,0,0)" stroke="rgb(0,0,0)" stroke-width="1" opacity="0.7764705882352941" d="M 182.5 426 L 179.5 430 L 182.5 426 Z " /><path fill="rgb(0,0,0)" stroke="rgb(0,0,0)" stroke-width="1" opacity="0.7764705882352941" d="M 215.5 430 L 212.5 434 L 215.5 430 Z " /><path fill="rgb(0,0,0)" stroke="rgb(0,0,0)" stroke-width="1" opacity="0.7764705882352941" d="M 176.5 431 L 174.5 434 L 176.5 431 Z " /><path fill="rgb(0,0,0)" stroke="rgb(0,0,0)" stroke-width="1" opacity="0.7764705882352941" d="M 171.5 435 L 170.5 437 L 171.5 435 Z " /><path fill="rgb(0,0,0)" stroke="rgb(0,0,0)" stroke-width="1" opacity="0.7764705882352941" d="M 168.5 437 L 167.5 439 L 168.5 437 Z " /><path fill="rgb(0,0,0)" stroke="rgb(0,0,0)" stroke-width="1" opacity="0.7764705882352941" d="M 204.5 440 L 200.5 445 L 204.5 440 Z " /><path fill="rgb(0,0,0)" stroke="rgb(0,0,0)" stroke-width="1" opacity="0.7764705882352941" d="M 159.5 443 L 158.5 445 L 159.5 443 Z " /><path fill="rgb(0,0,0)" stroke="rgb(0,0,0)" stroke-width="1" opacity="0.7764705882352941" d="M 196.5 447 L 194.5 450 L 196.5 447 Z " /><path fill="rgb(0,0,0)" stroke="rgb(0,0,0)" stroke-width="1" opacity="0.7764705882352941" d="M 191.5 451 L 189.5 454 L 191.5 451 Z " /><path fill="rgb(0,0,0)" stroke="rgb(0,0,0)" stroke-width="1" opacity="0.7764705882352941" d="M 186.5 455 L 185.5 457 L 186.5 455 Z " /><path fill="rgb(0,0,0)" stroke="rgb(0,0,0)" stroke-width="1" opacity="0.7764705882352941" d="M 183.5 457 L 182.5 459 L 183.5 457 Z " /><path fill="rgb(0,0,0)" stroke="rgb(0,0,0)" stroke-width="1" opacity="0.7764705882352941" d="M 179.5 460 L 178.5 462 L 179.5 460 Z " /><path fill="rgb(0,0,0)" stroke="rgb(0,0,0)" stroke-width="1" opacity="0.7764705882352941" d="M 10.5 465 L 16 465.5 L 10.5 466 L 10.5 465 Z " /><path fill="rgb(0,0,0)" stroke="rgb(0,0,0)" stroke-width="1" opacity="0.7764705882352941" d="M 171.5 465 L 170.5 467 L 171.5 465 Z " /><path fill="rgb(0,0,0)" stroke="rgb(0,0,0)" stroke-width="1" opacity="0.7764705882352941" d="M 18.5 466 L 21 466.5 L 18.5 467 L 18.5 466 Z " /><path fill="rgb(0,0,0)" stroke="rgb(0,0,0)" stroke-width="1" opacity="0.7764705882352941" d="M 23.5 467 L 26 467.5 L 23.5 468 L 23.5 467 Z " /><path fill="rgb(0,0,0)" stroke="rgb(0,0,0)" stroke-width="1" opacity="0.7764705882352941" d="M 4.5 468 L 3.5 470 L 4.5 468 Z " /><path fill="rgb(0,0,0)" stroke="rgb(0,0,0)" stroke-width="1" opacity="0.7764705882352941" d="M 28.5 468 L 32 468.5 L 28.5 469 L 28.5 468 Z " /><path fill="rgb(0,0,0)" stroke="rgb(0,0,0)" stroke-width="1" opacity="0.7764705882352941" d="M 166.5 468 L 165.5 470 L 166.5 468 Z " /><path fill="rgb(0,0,0)" stroke="rgb(0,0,0)" stroke-width="1" opacity="0.7764705882352941" d="M 35.5 469 L 39 469.5 L 35.5 470 L 35.5 469 Z " /><path fill="rgb(0,0,0)" stroke="rgb(0,0,0)" stroke-width="1" opacity="0.7764705882352941" d="M 88.5 469 L 91 469.5 L 88.5 470 L 88.5 469 Z " /><path fill="rgb(0,0,0)" stroke="rgb(0,0,0)" stroke-width="1" opacity="0.7764705882352941" d="M 44.5 470 L 49 470.5 L 44.5 471 L 44.5 470 Z " /><path fill="rgb(0,0,0)" stroke="rgb(0,0,0)" stroke-width="1" opacity="0.7764705882352941" d="M 78.5 470 L 83 470.5 L 78.5 471 L 78.5 470 Z " /><path fill="rgb(0,0,0)" stroke="rgb(0,0,0)" stroke-width="1" opacity="0.7764705882352941" d="M 60.5 471 L 68 471.5 L 60.5 472 L 60.5 471 Z " /><path fill="rgb(0,0,0)" stroke="rgb(0,0,0)" stroke-width="1" opacity="0.7764705882352941" d="M 0.5 475 L 1 480.5 L 0 480.5 L 0.5 475 Z " /><path fill="rgb(0,0,0)" stroke="rgb(0,0,0)" stroke-width="1" opacity="0.7764705882352941" d="M 3.5 486 L 4.5 488 L 3.5 486 Z " /><path fill="rgb(0,0,0)" stroke="rgb(0,0,0)" stroke-width="1" opacity="0.7764705882352941" d="M 6.5 488 L 9 489.5 L 7.5 490 L 6.5 488 Z " /><path fill="rgb(0,0,0)" stroke="rgb(0,0,0)" stroke-width="1" opacity="0.7764705882352941" d="M 10.5 490 L 13 490.5 L 10.5 491 L 10.5 490 Z " /><path fill="rgb(0,0,0)" stroke="rgb(0,0,0)" stroke-width="1" opacity="0.7764705882352941" d="M 107.5 491 L 110 491.5 L 107.5 492 L 107.5 491 Z " /><path fill="rgb(0,0,0)" stroke="rgb(0,0,0)" stroke-width="1" opacity="0.7764705882352941" d="M 20.5 492 L 23 492.5 L 20.5 493 L 20.5 492 Z " /><path fill="rgb(0,0,0)" stroke="rgb(0,0,0)" stroke-width="1" opacity="0.7764705882352941" d="M 102.5 492 L 105 492.5 L 102.5 493 L 102.5 492 Z " /><path fill="rgb(0,0,0)" stroke="rgb(0,0,0)" stroke-width="1" opacity="0.7764705882352941" d="M 26.5 493 L 29 493.5 L 26.5 494 L 26.5 493 Z " /><path fill="rgb(0,0,0)" stroke="rgb(0,0,0)" stroke-width="1" opacity="0.7764705882352941" d="M 97.5 493 L 100 493.5 L 97.5 494 L 97.5 493 Z " /><path fill="rgb(0,0,0)" stroke="rgb(0,0,0)" stroke-width="1" opacity="0.7764705882352941" d="M 33.5 494 L 36 494.5 L 33.5 495 L 33.5 494 Z " /><path fill="rgb(0,0,0)" stroke="rgb(0,0,0)" stroke-width="1" opacity="0.7764705882352941" d="M 90.5 494 L 94 494.5 L 90.5 495 L 90.5 494 Z " /><path fill="rgb(0,0,0)" stroke="rgb(0,0,0)" stroke-width="1" opacity="0.7764705882352941" d="M 41.5 495 L 47 495.5 L 41.5 496 L 41.5 495 Z " /><path fill="rgb(0,0,0)" stroke="rgb(0,0,0)" stroke-width="1" opacity="0.7764705882352941" d="M 80.5 495 L 86 495.5 L 80.5 496 L 80.5 495 Z " /><path fill="rgb(0,0,0)" stroke="rgb(0,0,0)" stroke-width="1" opacity="0.7764705882352941" d="M 56.5 496 L 72 496.5 L 56.5 497 L 56.5 496 Z " /><path fill="rgb(0,0,0)" stroke="rgb(0,0,0)" stroke-width="1" opacity="0.996078431372549" d="M 426.5 60 L 427 64.5 L 426 64.5 L 426.5 60 Z " /><path fill="rgb(0,0,0)" stroke="rgb(0,0,0)" stroke-width="1" opacity="0.996078431372549" d="M 450.5 75 L 451 77.5 L 450 77.5 L 450.5 75 Z " /><path fill="rgb(0,0,0)" stroke="rgb(0,0,0)" stroke-width="1" opacity="0.996078431372549" d="M 394.5 87 L 385.5 97 L 394.5 87 Z " /><path fill="rgb(0,0,0)" stroke="rgb(0,0,0)" stroke-width="1" opacity="0.996078431372549" d="M 488.5 93 L 489.5 95 L 488.5 93 Z " /><path fill="rgb(0,0,0)" stroke="rgb(0,0,0)" stroke-width="1" opacity="0.996078431372549" d="M 368.5 94 L 370.5 97 L 368.5 94 Z " /><path fill="rgb(0,0,0)" stroke="rgb(0,0,0)" stroke-width="1" opacity="0.996078431372549" d="M 253.5 125 L 254.5 127 L 253.5 125 Z " /><path fill="rgb(0,0,0)" stroke="rgb(0,0,0)" stroke-width="1" opacity="0.996078431372549" d="M 134.5 127 L 133.5 129 L 134.5 127 Z " /><path fill="rgb(0,0,0)" stroke="rgb(0,0,0)" stroke-width="1" opacity="0.996078431372549" d="M 258.5 129 L 259.5 131 L 258.5 129 Z " /><path fill="rgb(0,0,0)" stroke="rgb(0,0,0)" stroke-width="1" opacity="0.996078431372549" d="M 129.5 131 L 126.5 135 L 129.5 131 Z " /><path fill="rgb(0,0,0)" stroke="rgb(0,0,0)" stroke-width="1" opacity="0.996078431372549" d="M 267.5 137 L 269.5 140 L 267.5 137 Z " /><path fill="rgb(0,0,0)" stroke="rgb(0,0,0)" stroke-width="1" opacity="0.996078431372549" d="M 117.5 143 L 116.5 145 L 117.5 143 Z " /><path fill="rgb(0,0,0)" stroke="rgb(0,0,0)" stroke-width="1" opacity="0.996078431372549" d="M 239.5 145 L 240.5 147 L 239.5 145 Z " /><path fill="rgb(0,0,0)" stroke="rgb(0,0,0)" stroke-width="1" opacity="0.996078431372549" d="M 275.5 146 L 276.5 148 L 275.5 146 Z " /><path fill="rgb(0,0,0)" stroke="rgb(0,0,0)" stroke-width="1" opacity="0.996078431372549" d="M 148.5 147 L 147.5 149 L 148.5 147 Z " /><path fill="rgb(0,0,0)" stroke="rgb(0,0,0)" stroke-width="1" opacity="0.996078431372549" d="M 244.5 149 L 245.5 151 L 244.5 149 Z " /><path fill="rgb(0,0,0)" stroke="rgb(0,0,0)" stroke-width="1" opacity="0.996078431372549" d="M 279.5 151 L 280.5 153 L 279.5 151 Z " /><path fill="rgb(0,0,0)" stroke="rgb(0,0,0)" stroke-width="1" opacity="0.996078431372549" d="M 110.5 152 L 109.5 154 L 110.5 152 Z " /><path fill="rgb(0,0,0)" stroke="rgb(0,0,0)" stroke-width="1" opacity="0.996078431372549" d="M 142.5 152 L 136.5 159 L 142.5 152 Z " /><path fill="rgb(0,0,0)" stroke="rgb(0,0,0)" stroke-width="1" opacity="0.996078431372549" d="M 254.5 159 L 256.5 162 L 254.5 159 Z " /><path fill="rgb(0,0,0)" stroke="rgb(0,0,0)" stroke-width="1" opacity="0.996078431372549" d="M 115.5 209 L 116 213.5 L 115 213.5 L 115.5 209 Z " /><path fill="rgb(0,0,0)" stroke="rgb(0,0,0)" stroke-width="1" opacity="0.996078431372549" d="M 374.5 237 L 373.5 239 L 374.5 237 Z " /><path fill="rgb(0,0,0)" stroke="rgb(0,0,0)" stroke-width="1" opacity="0.996078431372549" d="M 370.5 242 L 369.5 244 L 370.5 242 Z " /><path fill="rgb(0,0,0)" stroke="rgb(0,0,0)" stroke-width="1" opacity="0.996078431372549" d="M 399.5 244 L 398.5 246 L 399.5 244 Z " /><path fill="rgb(0,0,0)" stroke="rgb(0,0,0)" stroke-width="1" opacity="0.996078431372549" d="M 396.5 248 L 395.5 250 L 396.5 248 Z " /><path fill="rgb(0,0,0)" stroke="rgb(0,0,0)" stroke-width="1" opacity="0.996078431372549" d="M 363.5 250 L 355.5 259 L 363.5 250 Z " /><path fill="rgb(0,0,0)" stroke="rgb(0,0,0)" stroke-width="1" opacity="0.996078431372549" d="M 393.5 252 L 392.5 254 L 393.5 252 Z " /><path fill="rgb(0,0,0)" stroke="rgb(0,0,0)" stroke-width="1" opacity="0.996078431372549" d="M 389.5 257 L 387.5 260 L 389.5 257 Z " /><path fill="rgb(0,0,0)" stroke="rgb(0,0,0)" stroke-width="1" opacity="0.996078431372549" d="M 348.5 264 L 347.5 266 L 348.5 264 Z " /><path fill="rgb(0,0,0)" stroke="rgb(0,0,0)" stroke-width="1" opacity="0.996078431372549" d="M 383.5 264 L 369.5 279 L 383.5 264 Z " /><path fill="rgb(0,0,0)" stroke="rgb(0,0,0)" stroke-width="1" opacity="0.996078431372549" d="M 139.5 267 L 144.5 273 L 139.5 267 Z " /><path fill="rgb(0,0,0)" stroke="rgb(0,0,0)" stroke-width="1" opacity="0.996078431372549" d="M 343.5 268 L 342.5 270 L 343.5 268 Z " /><path fill="rgb(0,0,0)" stroke="rgb(0,0,0)" stroke-width="1" opacity="0.996078431372549" d="M 114.5 275 L 115.5 277 L 114.5 275 Z " /><path fill="rgb(0,0,0)" stroke="rgb(0,0,0)" stroke-width="1" opacity="0.996078431372549" d="M 149.5 276 L 150.5 278 L 149.5 276 Z " /><path fill="rgb(0,0,0)" stroke="rgb(0,0,0)" stroke-width="1" opacity="0.996078431372549" d="M 153.5 279 L 154.5 281 L 153.5 279 Z " /><path fill="rgb(0,0,0)" stroke="rgb(0,0,0)" stroke-width="1" opacity="0.996078431372549" d="M 119.5 281 L 121.5 284 L 119.5 281 Z " /><path fill="rgb(0,0,0)" stroke="rgb(0,0,0)" stroke-width="1" opacity="0.996078431372549" d="M 363.5 283 L 362.5 285 L 363.5 283 Z " /><path fill="rgb(0,0,0)" stroke="rgb(0,0,0)" stroke-width="1" opacity="0.996078431372549" d="M 128.5 290 L 130.5 293 L 128.5 290 Z " /><path fill="rgb(0,0,0)" stroke="rgb(0,0,0)" stroke-width="1" opacity="0.996078431372549" d="M 135.5 296 L 136.5 298 L 135.5 296 Z " /><path fill="rgb(0,0,0)" stroke="rgb(0,0,0)" stroke-width="1" opacity="0.996078431372549" d="M 139.5 299 L 140.5 301 L 139.5 299 Z " /><path fill="rgb(0,0,0)" stroke="rgb(0,0,0)" stroke-width="1" opacity="0.996078431372549" d="M 281.5 324 L 280.5 326 L 281.5 324 Z " /><path fill="rgb(0,0,0)" stroke="rgb(0,0,0)" stroke-width="1" opacity="0.996078431372549" d="M 222.5 383 L 221.5 385 L 222.5 383 Z " /><path fill="rgb(0,0,0)" stroke="rgb(0,0,0)" stroke-width="1" opacity="0.996078431372549" d="M 216.5 391 L 215.5 393 L 216.5 391 Z " /><path fill="rgb(0,0,0)" stroke="rgb(0,0,0)" stroke-width="1" opacity="0.996078431372549" d="M 244.5 394 L 243.5 396 L 244.5 394 Z " /><path fill="rgb(0,0,0)" stroke="rgb(0,0,0)" stroke-width="1" opacity="0.996078431372549" d="M 212.5 396 L 211.5 398 L 212.5 396 Z " /><path fill="rgb(0,0,0)" stroke="rgb(0,0,0)" stroke-width="1" opacity="0.996078431372549" d="M 239.5 401 L 238.5 403 L 239.5 401 Z " /><path fill="rgb(0,0,0)" stroke="rgb(0,0,0)" stroke-width="1" opacity="0.996078431372549" d="M 207.5 402 L 205.5 405 L 207.5 402 Z " /><path fill="rgb(0,0,0)" stroke="rgb(0,0,0)" stroke-width="1" opacity="0.996078431372549" d="M 236.5 405 L 235.5 407 L 236.5 405 Z " /><path fill="rgb(0,0,0)" stroke="rgb(0,0,0)" stroke-width="1" opacity="0.996078431372549" d="M 232.5 410 L 231.5 412 L 232.5 410 Z " /><path fill="rgb(0,0,0)" stroke="rgb(0,0,0)" stroke-width="1" opacity="0.996078431372549" d="M 196.5 414 L 194.5 417 L 196.5 414 Z " /><path fill="rgb(0,0,0)" stroke="rgb(0,0,0)" stroke-width="1" opacity="0.996078431372549" d="M 228.5 415 L 226.5 418 L 228.5 415 Z " /><path fill="rgb(0,0,0)" stroke="rgb(0,0,0)" stroke-width="1" opacity="0.996078431372549" d="M 220.5 424 L 205.5 440 L 220.5 424 Z " /><path fill="rgb(0,0,0)" stroke="rgb(0,0,0)" stroke-width="1" opacity="0.996078431372549" d="M 184.5 425 L 183.5 427 L 184.5 425 Z " /><path fill="rgb(0,0,0)" stroke="rgb(0,0,0)" stroke-width="1" opacity="0.996078431372549" d="M 178.5 430 L 177.5 432 L 178.5 430 Z " /><path fill="rgb(0,0,0)" stroke="rgb(0,0,0)" stroke-width="1" opacity="0.996078431372549" d="M 199.5 444 L 197.5 447 L 199.5 444 Z " /><path fill="rgb(0,0,0)" stroke="rgb(0,0,0)" stroke-width="1" opacity="0.996078431372549" d="M 193.5 449 L 192.5 451 L 193.5 449 Z " /><path fill="rgb(0,0,0)" stroke="rgb(0,0,0)" stroke-width="1" opacity="0.996078431372549" d="M 188.5 453 L 187.5 455 L 188.5 453 Z " /><path fill="rgb(0,0,0)" stroke="rgb(0,0,0)" stroke-width="1" opacity="0.996078431372549" d="M 6.5 467 L 5.5 469 L 6.5 467 Z " /><path fill="rgb(0,0,0)" stroke="rgb(0,0,0)" stroke-width="1" opacity="0.996078431372549" d="M 56.5 471 L 60 471.5 L 56.5 472 L 56.5 471 Z " /><path fill="rgb(0,0,0)" stroke="rgb(0,0,0)" stroke-width="1" opacity="0.996078431372549" d="M 2.5 484 L 3.5 486 L 2.5 484 Z " /><path fill="rgb(0,0,0)" stroke="rgb(0,0,0)" stroke-width="1" opacity="1" d="M 435.5 16 L 442.5 16 L 448.5 19 L 510 80.5 Q 512.3 83.7 511 90.5 L 507.5 96 Q 504.3 99.8 496.5 99 L 492.5 97 L 452.5 57 L 451 57 L 450 90.5 L 449 91.5 L 449 101.5 L 448 102.5 L 445 129.5 L 439 157.5 L 428 191.5 Q 406.2 247.2 364.5 283 Q 348.7 296.7 329.5 307 L 307.5 317 L 292.5 322 L 281.5 324 L 280 325.5 Q 253.4 397.9 200.5 444 Q 173.4 468.4 136.5 483 L 118.5 489 L 95.5 494 L 79.5 495 L 78.5 496 L 49.5 496 L 48.5 495 L 38.5 495 L 37.5 494 L 30.5 494 L 13.5 491 L 4 487 L 1 481.5 L 1 474.5 L 4.5 469 Q 7.7 464.7 16.5 466 L 22.5 468 L 41.5 470 L 42.5 471 L 69.5 472 L 70.5 471 L 84.5 471 L 85.5 470 L 102.5 468 L 136.5 457 Q 171.7 440.7 197 414.5 Q 232.5 379.2 252 329 L 220.5 329 Q 218.8 326.3 212.5 328 L 178.5 320 Q 144.4 308.1 122 284.5 Q 107 269 98 247.5 L 92 226.5 L 91 204.5 L 92 203.5 L 93 190.5 L 98 174.5 Q 107.9 150.9 125.5 135 Q 140.2 121.1 160.5 113 L 182.5 107 L 200.5 106 L 201.5 107 L 215.5 108 L 226.5 111 L 245.5 120 Q 262.4 130.6 275 145.5 Q 289 160.5 295 183.5 L 299 203.5 L 300 236.5 L 299 237.5 L 299 249.5 L 298 250.5 L 296 270.5 L 290 297 Q 335.3 282.6 364 250.5 Q 396.4 215.9 412 164.5 L 419 137.5 L 419 132.5 L 423 114.5 L 425 87.5 L 426 86.5 L 427 56.5 L 395.5 87 L 383.5 98 L 375.5 99 Q 369.4 97.6 367 92.5 L 366 83.5 L 369 78.5 L 427.5 20 L 435.5 16 Z M 187 131 Q 159 136 143 152 Q 131 163 123 178 L 117 195 L 116 209 L 115 210 L 116 224 L 122 243 Q 129 256 139 268 Q 155 285 179 294 L 201 301 L 218 304 L 228 304 L 229 305 L 249 305 L 250 304 Q 258 305 263 303 L 270 277 L 274 254 L 274 247 L 275 246 L 275 208 L 272 191 Q 268 173 257 162 Q 244 145 224 136 L 206 131 L 187 131 Z " /></svg>