<svg width="512" height="512" version="1.1" xmlns="http://www.w3.org/2000/svg" desc="Created with imagetracer.js version 1.2.6" ><path fill="rgb(0,0,0)" stroke="rgb(0,0,0)" stroke-width="1" opacity="0" d="M 0 0 L 512 0 L 512 474.5 L 511 474.5 L 507.5 468 Q 504.3 464.2 496.5 465 L 485.5 468 L 473.5 469 L 472.5 470 L 463.5 470 L 462.5 471 L 434.5 471 L 433.5 470 L 417.5 469 L 396.5 464 Q 375.2 457.3 357.5 447 Q 326.8 428.2 304 401.5 Q 277.1 370.6 261 330 L 297.5 329 L 314.5 326 L 338.5 319 Q 370.1 307.1 391 284.5 Q 407.9 266.9 417 241.5 L 421 223.5 L 421 198.5 Q 413.3 156.7 386.5 134 Q 369.6 118.4 345.5 110 L 326.5 106 L 304.5 106 L 286.5 110 L 268.5 118 Q 249.7 129.2 236 145.5 Q 220.9 162.4 215 188.5 L 213 206.5 L 212 207.5 L 212 245.5 L 213 246.5 L 215 268.5 L 221 296 Q 177.2 281.5 149 250.5 Q 116.9 216.1 101 165.5 L 94 138.5 L 89 109.5 L 88 91.5 L 87 90.5 L 87 76.5 L 86 75.5 L 86 58.5 L 124.5 96 Q 128.3 99.7 135.5 100 Q 142 98.5 145 93.5 Q 147.6 90.6 147 84.5 L 144 78.5 L 84.5 19 Q 79.8 15.2 71.5 15 L 63.5 18 L 2 79.5 L 0.5 83 L 0 0 Z " /><path fill="rgb(0,0,0)" stroke="rgb(0,0,0)" stroke-width="1" opacity="0" d="M 59.5 58 L 61 64.5 L 62 97.5 L 63 98.5 L 63 107.5 L 64 108.5 L 67 133.5 L 71 152.5 L 81 185.5 Q 100 237.5 135.5 273 Q 153.9 291.6 177.5 305 Q 200.8 319 231 325 Q 254.6 389.7 299.5 434 Q 328.2 463.3 368.5 481 L 387.5 488 L 412.5 494 L 425.5 495 L 426.5 496 L 439.5 496 L 440.5 497 L 455.5 497 L 456.5 496 L 470.5 496 L 471.5 495 L 491.5 493 L 504.5 490 L 509 486.5 L 511.5 481 L 512 512 L 0 512 L 0 91.5 L 1 91.5 L 4.5 97 Q 7.5 100 13.5 100 L 19.5 98 L 59.5 58 Z " /><path fill="rgb(0,0,0)" stroke="rgb(0,0,0)" stroke-width="1" opacity="0" d="M 313.5 131 L 327.5 132 L 342.5 136 Q 362 144 375 158.5 Q 385.9 170.1 392 186.5 L 396 203.5 L 396 218.5 Q 389.6 253.1 367.5 272 Q 349.6 288.6 323.5 297 L 308.5 301 L 297.5 303 L 289.5 303 L 288.5 304 L 258.5 304 L 257.5 303 L 250 303 L 243 278.5 L 239 256.5 L 238 237.5 L 237 236.5 L 237 215.5 L 238 214.5 L 239 198.5 L 244 180.5 Q 252.5 162 267.5 150 L 285.5 138 L 299.5 133 L 312.5 132 L 313.5 131 Z " /><path fill="rgb(0,0,0)" stroke="rgb(0,0,0)" stroke-width="1" opacity="0.7764705882352941" d="M 71.5 15 L 75 15.5 L 71.5 16 L 71.5 15 Z " /><path fill="rgb(0,0,0)" stroke="rgb(0,0,0)" stroke-width="1" opacity="0.7764705882352941" d="M 81.5 17 L 82.5 19 L 81.5 17 Z " /><path fill="rgb(0,0,0)" stroke="rgb(0,0,0)" stroke-width="1" opacity="0.7764705882352941" d="M 63.5 18 L 2.5 80 L 63.5 18 Z " /><path fill="rgb(0,0,0)" stroke="rgb(0,0,0)" stroke-width="1" opacity="0.7764705882352941" d="M 84.5 19 L 143.5 79 L 84.5 19 Z " /><path fill="rgb(0,0,0)" stroke="rgb(0,0,0)" stroke-width="1" opacity="0.7764705882352941" d="M 60.5 57 L 61 63.5 L 60 63.5 L 60.5 57 Z " /><path fill="rgb(0,0,0)" stroke="rgb(0,0,0)" stroke-width="1" opacity="0.7764705882352941" d="M 85 57 L 86.5 57 L 125 95.5 L 86 58.5 L 85.5 60 L 85 57 Z " /><path fill="rgb(0,0,0)" stroke="rgb(0,0,0)" stroke-width="1" opacity="0.7764705882352941" d="M 58.5 58 L 48.5 69 L 58.5 58 Z " /><path fill="rgb(0,0,0)" stroke="rgb(0,0,0)" stroke-width="1" opacity="0.7764705882352941" d="M 44.5 72 L 40.5 77 L 44.5 72 Z " /><path fill="rgb(0,0,0)" stroke="rgb(0,0,0)" stroke-width="1" opacity="0.7764705882352941" d="M 86.5 76 L 87 84.5 L 86 84.5 L 86.5 76 Z " /><path fill="rgb(0,0,0)" stroke="rgb(0,0,0)" stroke-width="1" opacity="0.7764705882352941" d="M 61.5 78 L 62 85.5 L 61 85.5 L 61.5 78 Z " /><path fill="rgb(0,0,0)" stroke="rgb(0,0,0)" stroke-width="1" opacity="0.7764705882352941" d="M 36.5 80 L 35.5 82 L 36.5 80 Z " /><path fill="rgb(0,0,0)" stroke="rgb(0,0,0)" stroke-width="1" opacity="0.7764705882352941" d="M 144.5 80 L 146 82.5 L 145 82.5 L 144.5 80 Z " /><path fill="rgb(0,0,0)" stroke="rgb(0,0,0)" stroke-width="1" opacity="0.7764705882352941" d="M 0.5 83 L 1 85.5 L 0 85.5 L 0.5 83 Z " /><path fill="rgb(0,0,0)" stroke="rgb(0,0,0)" stroke-width="1" opacity="0.7764705882352941" d="M 146.5 84 L 147 88.5 L 146 88.5 L 146.5 84 Z " /><path fill="rgb(0,0,0)" stroke="rgb(0,0,0)" stroke-width="1" opacity="0.7764705882352941" d="M 29.5 87 L 28.5 89 L 29.5 87 Z " /><path fill="rgb(0,0,0)" stroke="rgb(0,0,0)" stroke-width="1" opacity="0.7764705882352941" d="M 0.5 88 L 1 90.5 L 0 90.5 L 0.5 88 Z " /><path fill="rgb(0,0,0)" stroke="rgb(0,0,0)" stroke-width="1" opacity="0.7764705882352941" d="M 87.5 91 L 88 95.5 L 87 95.5 L 87.5 91 Z " /><path fill="rgb(0,0,0)" stroke="rgb(0,0,0)" stroke-width="1" opacity="0.7764705882352941" d="M 62.5 93 L 63 97.5 L 62 97.5 L 62.5 93 Z " /><path fill="rgb(0,0,0)" stroke="rgb(0,0,0)" stroke-width="1" opacity="0.7764705882352941" d="M 3.5 95 L 4.5 97 L 3.5 95 Z " /><path fill="rgb(0,0,0)" stroke="rgb(0,0,0)" stroke-width="1" opacity="0.7764705882352941" d="M 21.5 95 L 19.5 98 L 21.5 95 Z " /><path fill="rgb(0,0,0)" stroke="rgb(0,0,0)" stroke-width="1" opacity="0.7764705882352941" d="M 6.5 97 L 9 98.5 L 7.5 99 L 6.5 97 Z " /><path fill="rgb(0,0,0)" stroke="rgb(0,0,0)" stroke-width="1" opacity="0.7764705882352941" d="M 11.5 99 L 14 99.5 L 11.5 100 L 11.5 99 Z " /><path fill="rgb(0,0,0)" stroke="rgb(0,0,0)" stroke-width="1" opacity="0.7764705882352941" d="M 132.5 99 L 136 99.5 L 132.5 100 L 132.5 99 Z " /><path fill="rgb(0,0,0)" stroke="rgb(0,0,0)" stroke-width="1" opacity="0.7764705882352941" d="M 88.5 102 L 89 105.5 L 88 105.5 L 88.5 102 Z " /><path fill="rgb(0,0,0)" stroke="rgb(0,0,0)" stroke-width="1" opacity="0.7764705882352941" d="M 63.5 103 L 64 107.5 L 63 107.5 L 63.5 103 Z " /><path fill="rgb(0,0,0)" stroke="rgb(0,0,0)" stroke-width="1" opacity="0.7764705882352941" d="M 304.5 106 L 309 106.5 L 304.5 107 L 304.5 106 Z " /><path fill="rgb(0,0,0)" stroke="rgb(0,0,0)" stroke-width="1" opacity="0.7764705882352941" d="M 321.5 106 L 327 106.5 L 321.5 107 L 321.5 106 Z " /><path fill="rgb(0,0,0)" stroke="rgb(0,0,0)" stroke-width="1" opacity="0.7764705882352941" d="M 298.5 107 L 301 107.5 L 298.5 108 L 298.5 107 Z " /><path fill="rgb(0,0,0)" stroke="rgb(0,0,0)" stroke-width="1" opacity="0.7764705882352941" d="M 89.5 110 L 90 113.5 L 89 113.5 L 89.5 110 Z " /><path fill="rgb(0,0,0)" stroke="rgb(0,0,0)" stroke-width="1" opacity="0.7764705882352941" d="M 64.5 112 L 65 114.5 L 64 114.5 L 64.5 112 Z " /><path fill="rgb(0,0,0)" stroke="rgb(0,0,0)" stroke-width="1" opacity="0.7764705882352941" d="M 359.5 116 L 362 117.5 L 360.5 117 L 359.5 116 Z " /><path fill="rgb(0,0,0)" stroke="rgb(0,0,0)" stroke-width="1" opacity="0.7764705882352941" d="M 90.5 117 L 91 119.5 L 90 119.5 L 90.5 117 Z " /><path fill="rgb(0,0,0)" stroke="rgb(0,0,0)" stroke-width="1" opacity="0.7764705882352941" d="M 268.5 118 L 267.5 120 L 268.5 118 Z " /><path fill="rgb(0,0,0)" stroke="rgb(0,0,0)" stroke-width="1" opacity="0.7764705882352941" d="M 65.5 119 L 66 121.5 L 65 121.5 L 65.5 119 Z " /><path fill="rgb(0,0,0)" stroke="rgb(0,0,0)" stroke-width="1" opacity="0.7764705882352941" d="M 263.5 121 L 262.5 123 L 263.5 121 Z " /><path fill="rgb(0,0,0)" stroke="rgb(0,0,0)" stroke-width="1" opacity="0.7764705882352941" d="M 91.5 123 L 92 125.5 L 91 125.5 L 91.5 123 Z " /><path fill="rgb(0,0,0)" stroke="rgb(0,0,0)" stroke-width="1" opacity="0.7764705882352941" d="M 260.5 123 L 259.5 125 L 260.5 123 Z " /><path fill="rgb(0,0,0)" stroke="rgb(0,0,0)" stroke-width="1" opacity="0.7764705882352941" d="M 372.5 123 L 373.5 125 L 372.5 123 Z " /><path fill="rgb(0,0,0)" stroke="rgb(0,0,0)" stroke-width="1" opacity="0.7764705882352941" d="M 66.5 125 L 67 127.5 L 66 127.5 L 66.5 125 Z " /><path fill="rgb(0,0,0)" stroke="rgb(0,0,0)" stroke-width="1" opacity="0.7764705882352941" d="M 375.5 125 L 376.5 127 L 375.5 125 Z " /><path fill="rgb(0,0,0)" stroke="rgb(0,0,0)" stroke-width="1" opacity="0.7764705882352941" d="M 256.5 126 L 254.5 129 L 256.5 126 Z " /><path fill="rgb(0,0,0)" stroke="rgb(0,0,0)" stroke-width="1" opacity="0.7764705882352941" d="M 379.5 128 L 381.5 131 L 379.5 128 Z " /><path fill="rgb(0,0,0)" stroke="rgb(0,0,0)" stroke-width="1" opacity="0.7764705882352941" d="M 92.5 129 L 93 131.5 L 92 131.5 L 92.5 129 Z " /><path fill="rgb(0,0,0)" stroke="rgb(0,0,0)" stroke-width="1" opacity="0.7764705882352941" d="M 251.5 130 L 245.5 137 L 251.5 130 Z " /><path fill="rgb(0,0,0)" stroke="rgb(0,0,0)" stroke-width="1" opacity="0.7764705882352941" d="M 67.5 131 L 68 133.5 L 67 133.5 L 67.5 131 Z " /><path fill="rgb(0,0,0)" stroke="rgb(0,0,0)" stroke-width="1" opacity="0.7764705882352941" d="M 307.5 131 L 313 131.5 L 307.5 132 L 307.5 131 Z " /><path fill="rgb(0,0,0)" stroke="rgb(0,0,0)" stroke-width="1" opacity="0.7764705882352941" d="M 318.5 131 L 325 131.5 L 318.5 132 L 318.5 131 Z " /><path fill="rgb(0,0,0)" stroke="rgb(0,0,0)" stroke-width="1" opacity="0.7764705882352941" d="M 301.5 132 L 304 132.5 L 301.5 133 L 301.5 132 Z " /><path fill="rgb(0,0,0)" stroke="rgb(0,0,0)" stroke-width="1" opacity="0.7764705882352941" d="M 328.5 132 L 331 132.5 L 328.5 133 L 328.5 132 Z " /><path fill="rgb(0,0,0)" stroke="rgb(0,0,0)" stroke-width="1" opacity="0.7764705882352941" d="M 93.5 134 L 94 136.5 L 93 136.5 L 93.5 134 Z " /><path fill="rgb(0,0,0)" stroke="rgb(0,0,0)" stroke-width="1" opacity="0.7764705882352941" d="M 386.5 134 L 394.5 143 L 386.5 134 Z " /><path fill="rgb(0,0,0)" stroke="rgb(0,0,0)" stroke-width="1" opacity="0.7764705882352941" d="M 68.5 136 L 69 138.5 L 68 138.5 L 68.5 136 Z " /><path fill="rgb(0,0,0)" stroke="rgb(0,0,0)" stroke-width="1" opacity="0.7764705882352941" d="M 282.5 139 L 281.5 141 L 282.5 139 Z " /><path fill="rgb(0,0,0)" stroke="rgb(0,0,0)" stroke-width="1" opacity="0.7764705882352941" d="M 241.5 140 L 236.5 146 L 241.5 140 Z " /><path fill="rgb(0,0,0)" stroke="rgb(0,0,0)" stroke-width="1" opacity="0.7764705882352941" d="M 277.5 142 L 276.5 144 L 277.5 142 Z " /><path fill="rgb(0,0,0)" stroke="rgb(0,0,0)" stroke-width="1" opacity="0.7764705882352941" d="M 355.5 142 L 356.5 144 L 355.5 142 Z " /><path fill="rgb(0,0,0)" stroke="rgb(0,0,0)" stroke-width="1" opacity="0.7764705882352941" d="M 95.5 143 L 96 145.5 L 95 145.5 L 95.5 143 Z " /><path fill="rgb(0,0,0)" stroke="rgb(0,0,0)" stroke-width="1" opacity="0.7764705882352941" d="M 274.5 144 L 273.5 146 L 274.5 144 Z " /><path fill="rgb(0,0,0)" stroke="rgb(0,0,0)" stroke-width="1" opacity="0.7764705882352941" d="M 396.5 145 L 398.5 148 L 396.5 145 Z " /><path fill="rgb(0,0,0)" stroke="rgb(0,0,0)" stroke-width="1" opacity="0.7764705882352941" d="M 361.5 146 L 362.5 148 L 361.5 146 Z " /><path fill="rgb(0,0,0)" stroke="rgb(0,0,0)" stroke-width="1" opacity="0.7764705882352941" d="M 270.5 147 L 268.5 150 L 270.5 147 Z " /><path fill="rgb(0,0,0)" stroke="rgb(0,0,0)" stroke-width="1" opacity="0.7764705882352941" d="M 234.5 148 L 232.5 151 L 234.5 148 Z " /><path fill="rgb(0,0,0)" stroke="rgb(0,0,0)" stroke-width="1" opacity="0.7764705882352941" d="M 365.5 149 L 368.5 153 L 365.5 149 Z " /><path fill="rgb(0,0,0)" stroke="rgb(0,0,0)" stroke-width="1" opacity="0.7764705882352941" d="M 71.5 150 L 72 152.5 L 71 152.5 L 71.5 150 Z " /><path fill="rgb(0,0,0)" stroke="rgb(0,0,0)" stroke-width="1" opacity="0.7764705882352941" d="M 400.5 150 L 401.5 152 L 400.5 150 Z " /><path fill="rgb(0,0,0)" stroke="rgb(0,0,0)" stroke-width="1" opacity="0.7764705882352941" d="M 265.5 151 L 258.5 159 L 265.5 151 Z " /><path fill="rgb(0,0,0)" stroke="rgb(0,0,0)" stroke-width="1" opacity="0.7764705882352941" d="M 230.5 153 L 229.5 155 L 230.5 153 Z " /><path fill="rgb(0,0,0)" stroke="rgb(0,0,0)" stroke-width="1" opacity="0.7764705882352941" d="M 404.5 156 L 405.5 158 L 404.5 156 Z " /><path fill="rgb(0,0,0)" stroke="rgb(0,0,0)" stroke-width="1" opacity="0.7764705882352941" d="M 375.5 159 L 378.5 163 L 375.5 159 Z " /><path fill="rgb(0,0,0)" stroke="rgb(0,0,0)" stroke-width="1" opacity="0.7764705882352941" d="M 406.5 159 L 407.5 161 L 406.5 159 Z " /><path fill="rgb(0,0,0)" stroke="rgb(0,0,0)" stroke-width="1" opacity="0.7764705882352941" d="M 254.5 163 L 252.5 166 L 254.5 163 Z " /><path fill="rgb(0,0,0)" stroke="rgb(0,0,0)" stroke-width="1" opacity="0.7764705882352941" d="M 380.5 165 L 381.5 167 L 380.5 165 Z " /><path fill="rgb(0,0,0)" stroke="rgb(0,0,0)" stroke-width="1" opacity="0.7764705882352941" d="M 251.5 167 L 250.5 169 L 251.5 167 Z " /><path fill="rgb(0,0,0)" stroke="rgb(0,0,0)" stroke-width="1" opacity="0.7764705882352941" d="M 382.5 168 L 383.5 170 L 382.5 168 Z " /><path fill="rgb(0,0,0)" stroke="rgb(0,0,0)" stroke-width="1" opacity="0.7764705882352941" d="M 384.5 171 L 385.5 173 L 384.5 171 Z " /><path fill="rgb(0,0,0)" stroke="rgb(0,0,0)" stroke-width="1" opacity="0.7764705882352941" d="M 418.5 187 L 419 189.5 L 418 189.5 L 418.5 187 Z " /><path fill="rgb(0,0,0)" stroke="rgb(0,0,0)" stroke-width="1" opacity="0.7764705882352941" d="M 420.5 198 L 421 201.5 L 420 201.5 L 420.5 198 Z " /><path fill="rgb(0,0,0)" stroke="rgb(0,0,0)" stroke-width="1" opacity="0.7764705882352941" d="M 213.5 199 L 214 201.5 L 213 201.5 L 213.5 199 Z " /><path fill="rgb(0,0,0)" stroke="rgb(0,0,0)" stroke-width="1" opacity="0.7764705882352941" d="M 395.5 200 L 396 202.5 L 395 202.5 L 395.5 200 Z " /><path fill="rgb(0,0,0)" stroke="rgb(0,0,0)" stroke-width="1" opacity="0.7764705882352941" d="M 238.5 201 L 239 204.5 L 238 204.5 L 238.5 201 Z " /><path fill="rgb(0,0,0)" stroke="rgb(0,0,0)" stroke-width="1" opacity="0.7764705882352941" d="M 212.5 207 L 213 212.5 L 212 212.5 L 212.5 207 Z " /><path fill="rgb(0,0,0)" stroke="rgb(0,0,0)" stroke-width="1" opacity="0.7764705882352941" d="M 119.5 209 L 120.5 211 L 119.5 209 Z " /><path fill="rgb(0,0,0)" stroke="rgb(0,0,0)" stroke-width="1" opacity="0.7764705882352941" d="M 237.5 209 L 238 214.5 L 237 214.5 L 237.5 209 Z " /><path fill="rgb(0,0,0)" stroke="rgb(0,0,0)" stroke-width="1" opacity="0.7764705882352941" d="M 93.5 213 L 94.5 215 L 93.5 213 Z " /><path fill="rgb(0,0,0)" stroke="rgb(0,0,0)" stroke-width="1" opacity="0.7764705882352941" d="M 123.5 216 L 124.5 218 L 123.5 216 Z " /><path fill="rgb(0,0,0)" stroke="rgb(0,0,0)" stroke-width="1" opacity="0.7764705882352941" d="M 395.5 219 L 396 221.5 L 395 221.5 L 395.5 219 Z " /><path fill="rgb(0,0,0)" stroke="rgb(0,0,0)" stroke-width="1" opacity="0.7764705882352941" d="M 420.5 220 L 421 223.5 L 420 223.5 L 420.5 220 Z " /><path fill="rgb(0,0,0)" stroke="rgb(0,0,0)" stroke-width="1" opacity="0.7764705882352941" d="M 126.5 221 L 127.5 223 L 126.5 221 Z " /><path fill="rgb(0,0,0)" stroke="rgb(0,0,0)" stroke-width="1" opacity="0.7764705882352941" d="M 128.5 224 L 129.5 226 L 128.5 224 Z " /><path fill="rgb(0,0,0)" stroke="rgb(0,0,0)" stroke-width="1" opacity="0.7764705882352941" d="M 100.5 226 L 101.5 228 L 100.5 226 Z " /><path fill="rgb(0,0,0)" stroke="rgb(0,0,0)" stroke-width="1" opacity="0.7764705882352941" d="M 130.5 227 L 131.5 229 L 130.5 227 Z " /><path fill="rgb(0,0,0)" stroke="rgb(0,0,0)" stroke-width="1" opacity="0.7764705882352941" d="M 132.5 230 L 134.5 233 L 132.5 230 Z " /><path fill="rgb(0,0,0)" stroke="rgb(0,0,0)" stroke-width="1" opacity="0.7764705882352941" d="M 103.5 231 L 104.5 233 L 103.5 231 Z " /><path fill="rgb(0,0,0)" stroke="rgb(0,0,0)" stroke-width="1" opacity="0.7764705882352941" d="M 135.5 234 L 137.5 237 L 135.5 234 Z " /><path fill="rgb(0,0,0)" stroke="rgb(0,0,0)" stroke-width="1" opacity="0.7764705882352941" d="M 237.5 237 L 238 243.5 L 237 243.5 L 237.5 237 Z " /><path fill="rgb(0,0,0)" stroke="rgb(0,0,0)" stroke-width="1" opacity="0.7764705882352941" d="M 139.5 239 L 141.5 242 L 139.5 239 Z " /><path fill="rgb(0,0,0)" stroke="rgb(0,0,0)" stroke-width="1" opacity="0.7764705882352941" d="M 212.5 239 L 213 245.5 L 212 245.5 L 212.5 239 Z " /><path fill="rgb(0,0,0)" stroke="rgb(0,0,0)" stroke-width="1" opacity="0.7764705882352941" d="M 143.5 244 L 148.5 250 L 143.5 244 Z " /><path fill="rgb(0,0,0)" stroke="rgb(0,0,0)" stroke-width="1" opacity="0.7764705882352941" d="M 113.5 246 L 114.5 248 L 113.5 246 Z " /><path fill="rgb(0,0,0)" stroke="rgb(0,0,0)" stroke-width="1" opacity="0.7764705882352941" d="M 238.5 249 L 239 252.5 L 238 252.5 L 238.5 249 Z " /><path fill="rgb(0,0,0)" stroke="rgb(0,0,0)" stroke-width="1" opacity="0.7764705882352941" d="M 385.5 249 L 384.5 251 L 385.5 249 Z " /><path fill="rgb(0,0,0)" stroke="rgb(0,0,0)" stroke-width="1" opacity="0.7764705882352941" d="M 116.5 250 L 117.5 252 L 116.5 250 Z " /><path fill="rgb(0,0,0)" stroke="rgb(0,0,0)" stroke-width="1" opacity="0.7764705882352941" d="M 213.5 251 L 214 254.5 L 213 254.5 L 213.5 251 Z " /><path fill="rgb(0,0,0)" stroke="rgb(0,0,0)" stroke-width="1" opacity="0.7764705882352941" d="M 119.5 254 L 121.5 257 L 119.5 254 Z " /><path fill="rgb(0,0,0)" stroke="rgb(0,0,0)" stroke-width="1" opacity="0.7764705882352941" d="M 239.5 257 L 240 259.5 L 239 259.5 L 239.5 257 Z " /><path fill="rgb(0,0,0)" stroke="rgb(0,0,0)" stroke-width="1" opacity="0.7764705882352941" d="M 157.5 258 L 162.5 264 L 157.5 258 Z " /><path fill="rgb(0,0,0)" stroke="rgb(0,0,0)" stroke-width="1" opacity="0.7764705882352941" d="M 379.5 258 L 378.5 260 L 379.5 258 Z " /><path fill="rgb(0,0,0)" stroke="rgb(0,0,0)" stroke-width="1" opacity="0.7764705882352941" d="M 214.5 259 L 215 261.5 L 214 261.5 L 214.5 259 Z " /><path fill="rgb(0,0,0)" stroke="rgb(0,0,0)" stroke-width="1" opacity="0.7764705882352941" d="M 124.5 260 L 127.5 264 L 124.5 260 Z " /><path fill="rgb(0,0,0)" stroke="rgb(0,0,0)" stroke-width="1" opacity="0.7764705882352941" d="M 407.5 261 L 406.5 263 L 407.5 261 Z " /><path fill="rgb(0,0,0)" stroke="rgb(0,0,0)" stroke-width="1" opacity="0.7764705882352941" d="M 376.5 262 L 372.5 267 L 376.5 262 Z " /><path fill="rgb(0,0,0)" stroke="rgb(0,0,0)" stroke-width="1" opacity="0.7764705882352941" d="M 240.5 263 L 241 265.5 L 240 265.5 L 240.5 263 Z " /><path fill="rgb(0,0,0)" stroke="rgb(0,0,0)" stroke-width="1" opacity="0.7764705882352941" d="M 165.5 265 L 167.5 268 L 165.5 265 Z " /><path fill="rgb(0,0,0)" stroke="rgb(0,0,0)" stroke-width="1" opacity="0.7764705882352941" d="M 215.5 266 L 216 268.5 L 215 268.5 L 215.5 266 Z " /><path fill="rgb(0,0,0)" stroke="rgb(0,0,0)" stroke-width="1" opacity="0.7764705882352941" d="M 404.5 266 L 403.5 268 L 404.5 266 Z " /><path fill="rgb(0,0,0)" stroke="rgb(0,0,0)" stroke-width="1" opacity="0.7764705882352941" d="M 170.5 269 L 172.5 272 L 170.5 269 Z " /><path fill="rgb(0,0,0)" stroke="rgb(0,0,0)" stroke-width="1" opacity="0.7764705882352941" d="M 402.5 269 L 401.5 271 L 402.5 269 Z " /><path fill="rgb(0,0,0)" stroke="rgb(0,0,0)" stroke-width="1" opacity="0.7764705882352941" d="M 133.5 270 L 135.5 273 L 133.5 270 Z " /><path fill="rgb(0,0,0)" stroke="rgb(0,0,0)" stroke-width="1" opacity="0.7764705882352941" d="M 174.5 272 L 175.5 274 L 174.5 272 Z " /><path fill="rgb(0,0,0)" stroke="rgb(0,0,0)" stroke-width="1" opacity="0.7764705882352941" d="M 366.5 272 L 363.5 276 L 366.5 272 Z " /><path fill="rgb(0,0,0)" stroke="rgb(0,0,0)" stroke-width="1" opacity="0.7764705882352941" d="M 399.5 273 L 398.5 275 L 399.5 273 Z " /><path fill="rgb(0,0,0)" stroke="rgb(0,0,0)" stroke-width="1" opacity="0.7764705882352941" d="M 360.5 277 L 359.5 279 L 360.5 277 Z " /><path fill="rgb(0,0,0)" stroke="rgb(0,0,0)" stroke-width="1" opacity="0.7764705882352941" d="M 396.5 277 L 393.5 281 L 396.5 277 Z " /><path fill="rgb(0,0,0)" stroke="rgb(0,0,0)" stroke-width="1" opacity="0.7764705882352941" d="M 183.5 278 L 184.5 280 L 183.5 278 Z " /><path fill="rgb(0,0,0)" stroke="rgb(0,0,0)" stroke-width="1" opacity="0.7764705882352941" d="M 143.5 279 L 147.5 284 L 143.5 279 Z " /><path fill="rgb(0,0,0)" stroke="rgb(0,0,0)" stroke-width="1" opacity="0.7764705882352941" d="M 356.5 280 L 355.5 282 L 356.5 280 Z " /><path fill="rgb(0,0,0)" stroke="rgb(0,0,0)" stroke-width="1" opacity="0.7764705882352941" d="M 188.5 281 L 189.5 283 L 188.5 281 Z " /><path fill="rgb(0,0,0)" stroke="rgb(0,0,0)" stroke-width="1" opacity="0.7764705882352941" d="M 353.5 282 L 352.5 284 L 353.5 282 Z " /><path fill="rgb(0,0,0)" stroke="rgb(0,0,0)" stroke-width="1" opacity="0.7764705882352941" d="M 390.5 284 L 384.5 291 L 390.5 284 Z " /><path fill="rgb(0,0,0)" stroke="rgb(0,0,0)" stroke-width="1" opacity="0.7764705882352941" d="M 150.5 285 L 152.5 288 L 150.5 285 Z " /><path fill="rgb(0,0,0)" stroke="rgb(0,0,0)" stroke-width="1" opacity="0.7764705882352941" d="M 155.5 289 L 157.5 292 L 155.5 289 Z " /><path fill="rgb(0,0,0)" stroke="rgb(0,0,0)" stroke-width="1" opacity="0.7764705882352941" d="M 159.5 292 L 160.5 294 L 159.5 292 Z " /><path fill="rgb(0,0,0)" stroke="rgb(0,0,0)" stroke-width="1" opacity="0.7764705882352941" d="M 380.5 293 L 377.5 297 L 380.5 293 Z " /><path fill="rgb(0,0,0)" stroke="rgb(0,0,0)" stroke-width="1" opacity="0.7764705882352941" d="M 221.5 294 L 222 296.5 L 221 296.5 L 221.5 294 Z " /><path fill="rgb(0,0,0)" stroke="rgb(0,0,0)" stroke-width="1" opacity="0.7764705882352941" d="M 163.5 295 L 164.5 297 L 163.5 295 Z " /><path fill="rgb(0,0,0)" stroke="rgb(0,0,0)" stroke-width="1" opacity="0.7764705882352941" d="M 166.5 297 L 167.5 299 L 166.5 297 Z " /><path fill="rgb(0,0,0)" stroke="rgb(0,0,0)" stroke-width="1" opacity="0.7764705882352941" d="M 374.5 298 L 373.5 300 L 374.5 298 Z " /><path fill="rgb(0,0,0)" stroke="rgb(0,0,0)" stroke-width="1" opacity="0.7764705882352941" d="M 298.5 302 L 301 302.5 L 298.5 303 L 298.5 302 Z " /><path fill="rgb(0,0,0)" stroke="rgb(0,0,0)" stroke-width="1" opacity="0.7764705882352941" d="M 176.5 303 L 177.5 305 L 176.5 303 Z " /><path fill="rgb(0,0,0)" stroke="rgb(0,0,0)" stroke-width="1" opacity="0.7764705882352941" d="M 253.5 303 L 258 303.5 L 253.5 304 L 253.5 303 Z " /><path fill="rgb(0,0,0)" stroke="rgb(0,0,0)" stroke-width="1" opacity="0.7764705882352941" d="M 289.5 303 L 294 303.5 L 289.5 304 L 289.5 303 Z " /><path fill="rgb(0,0,0)" stroke="rgb(0,0,0)" stroke-width="1" opacity="0.7764705882352941" d="M 367.5 303 L 366.5 305 L 367.5 303 Z " /><path fill="rgb(0,0,0)" stroke="rgb(0,0,0)" stroke-width="1" opacity="0.7764705882352941" d="M 265.5 304 L 282 304.5 L 265.5 305 L 265.5 304 Z " /><path fill="rgb(0,0,0)" stroke="rgb(0,0,0)" stroke-width="1" opacity="0.7764705882352941" d="M 362.5 306 L 361.5 308 L 362.5 306 Z " /><path fill="rgb(0,0,0)" stroke="rgb(0,0,0)" stroke-width="1" opacity="0.7764705882352941" d="M 301.5 327 L 304 327.5 L 301.5 328 L 301.5 327 Z " /><path fill="rgb(0,0,0)" stroke="rgb(0,0,0)" stroke-width="1" opacity="0.7764705882352941" d="M 293.5 328 L 298 328.5 L 293.5 329 L 293.5 328 Z " /><path fill="rgb(0,0,0)" stroke="rgb(0,0,0)" stroke-width="1" opacity="0.7764705882352941" d="M 260 329 L 287 329.5 L 261 330 L 260.5 332 L 260 329 Z " /><path fill="rgb(0,0,0)" stroke="rgb(0,0,0)" stroke-width="1" opacity="0.7764705882352941" d="M 244.5 355 L 246 357.5 L 244 356.5 L 244.5 355 Z " /><path fill="rgb(0,0,0)" stroke="rgb(0,0,0)" stroke-width="1" opacity="0.7764705882352941" d="M 273.5 357 L 274.5 359 L 273.5 357 Z " /><path fill="rgb(0,0,0)" stroke="rgb(0,0,0)" stroke-width="1" opacity="0.7764705882352941" d="M 277.5 364 L 278.5 366 L 277.5 364 Z " /><path fill="rgb(0,0,0)" stroke="rgb(0,0,0)" stroke-width="1" opacity="0.7764705882352941" d="M 280.5 369 L 281.5 371 L 280.5 369 Z " /><path fill="rgb(0,0,0)" stroke="rgb(0,0,0)" stroke-width="1" opacity="0.7764705882352941" d="M 252.5 371 L 253.5 373 L 252.5 371 Z " /><path fill="rgb(0,0,0)" stroke="rgb(0,0,0)" stroke-width="1" opacity="0.7764705882352941" d="M 282.5 372 L 283.5 374 L 282.5 372 Z " /><path fill="rgb(0,0,0)" stroke="rgb(0,0,0)" stroke-width="1" opacity="0.7764705882352941" d="M 284.5 375 L 285.5 377 L 284.5 375 Z " /><path fill="rgb(0,0,0)" stroke="rgb(0,0,0)" stroke-width="1" opacity="0.7764705882352941" d="M 255.5 376 L 256.5 378 L 255.5 376 Z " /><path fill="rgb(0,0,0)" stroke="rgb(0,0,0)" stroke-width="1" opacity="0.7764705882352941" d="M 286.5 378 L 287.5 380 L 286.5 378 Z " /><path fill="rgb(0,0,0)" stroke="rgb(0,0,0)" stroke-width="1" opacity="0.7764705882352941" d="M 258.5 381 L 259.5 383 L 258.5 381 Z " /><path fill="rgb(0,0,0)" stroke="rgb(0,0,0)" stroke-width="1" opacity="0.7764705882352941" d="M 288.5 381 L 289.5 383 L 288.5 381 Z " /><path fill="rgb(0,0,0)" stroke="rgb(0,0,0)" stroke-width="1" opacity="0.7764705882352941" d="M 291.5 385 L 292.5 387 L 291.5 385 Z " /><path fill="rgb(0,0,0)" stroke="rgb(0,0,0)" stroke-width="1" opacity="0.7764705882352941" d="M 293.5 388 L 295.5 391 L 293.5 388 Z " /><path fill="rgb(0,0,0)" stroke="rgb(0,0,0)" stroke-width="1" opacity="0.7764705882352941" d="M 265.5 392 L 266.5 394 L 265.5 392 Z " /><path fill="rgb(0,0,0)" stroke="rgb(0,0,0)" stroke-width="1" opacity="0.7764705882352941" d="M 297.5 393 L 298.5 395 L 297.5 393 Z " /><path fill="rgb(0,0,0)" stroke="rgb(0,0,0)" stroke-width="1" opacity="0.7764705882352941" d="M 268.5 396 L 269.5 398 L 268.5 396 Z " /><path fill="rgb(0,0,0)" stroke="rgb(0,0,0)" stroke-width="1" opacity="0.7764705882352941" d="M 301.5 398 L 303.5 401 L 301.5 398 Z " /><path fill="rgb(0,0,0)" stroke="rgb(0,0,0)" stroke-width="1" opacity="0.7764705882352941" d="M 270.5 399 L 271.5 401 L 270.5 399 Z " /><path fill="rgb(0,0,0)" stroke="rgb(0,0,0)" stroke-width="1" opacity="0.7764705882352941" d="M 273.5 403 L 274.5 405 L 273.5 403 Z " /><path fill="rgb(0,0,0)" stroke="rgb(0,0,0)" stroke-width="1" opacity="0.7764705882352941" d="M 307.5 405 L 326.5 425 L 307.5 405 Z " /><path fill="rgb(0,0,0)" stroke="rgb(0,0,0)" stroke-width="1" opacity="0.7764705882352941" d="M 276.5 407 L 278.5 410 L 276.5 407 Z " /><path fill="rgb(0,0,0)" stroke="rgb(0,0,0)" stroke-width="1" opacity="0.7764705882352941" d="M 280.5 412 L 282.5 415 L 280.5 412 Z " /><path fill="rgb(0,0,0)" stroke="rgb(0,0,0)" stroke-width="1" opacity="0.7764705882352941" d="M 285.5 418 L 290.5 424 L 285.5 418 Z " /><path fill="rgb(0,0,0)" stroke="rgb(0,0,0)" stroke-width="1" opacity="0.7764705882352941" d="M 329.5 426 L 332.5 430 L 329.5 426 Z " /><path fill="rgb(0,0,0)" stroke="rgb(0,0,0)" stroke-width="1" opacity="0.7764705882352941" d="M 296.5 430 L 299.5 434 L 296.5 430 Z " /><path fill="rgb(0,0,0)" stroke="rgb(0,0,0)" stroke-width="1" opacity="0.7764705882352941" d="M 335.5 431 L 337.5 434 L 335.5 431 Z " /><path fill="rgb(0,0,0)" stroke="rgb(0,0,0)" stroke-width="1" opacity="0.7764705882352941" d="M 340.5 435 L 341.5 437 L 340.5 435 Z " /><path fill="rgb(0,0,0)" stroke="rgb(0,0,0)" stroke-width="1" opacity="0.7764705882352941" d="M 343.5 437 L 344.5 439 L 343.5 437 Z " /><path fill="rgb(0,0,0)" stroke="rgb(0,0,0)" stroke-width="1" opacity="0.7764705882352941" d="M 307.5 440 L 311.5 445 L 307.5 440 Z " /><path fill="rgb(0,0,0)" stroke="rgb(0,0,0)" stroke-width="1" opacity="0.7764705882352941" d="M 352.5 443 L 353.5 445 L 352.5 443 Z " /><path fill="rgb(0,0,0)" stroke="rgb(0,0,0)" stroke-width="1" opacity="0.7764705882352941" d="M 315.5 447 L 317.5 450 L 315.5 447 Z " /><path fill="rgb(0,0,0)" stroke="rgb(0,0,0)" stroke-width="1" opacity="0.7764705882352941" d="M 320.5 451 L 322.5 454 L 320.5 451 Z " /><path fill="rgb(0,0,0)" stroke="rgb(0,0,0)" stroke-width="1" opacity="0.7764705882352941" d="M 325.5 455 L 326.5 457 L 325.5 455 Z " /><path fill="rgb(0,0,0)" stroke="rgb(0,0,0)" stroke-width="1" opacity="0.7764705882352941" d="M 328.5 457 L 329.5 459 L 328.5 457 Z " /><path fill="rgb(0,0,0)" stroke="rgb(0,0,0)" stroke-width="1" opacity="0.7764705882352941" d="M 332.5 460 L 333.5 462 L 332.5 460 Z " /><path fill="rgb(0,0,0)" stroke="rgb(0,0,0)" stroke-width="1" opacity="0.7764705882352941" d="M 340.5 465 L 341.5 467 L 340.5 465 Z " /><path fill="rgb(0,0,0)" stroke="rgb(0,0,0)" stroke-width="1" opacity="0.7764705882352941" d="M 496.5 465 L 502 465.5 L 496.5 466 L 496.5 465 Z " /><path fill="rgb(0,0,0)" stroke="rgb(0,0,0)" stroke-width="1" opacity="0.7764705882352941" d="M 491.5 466 L 494 466.5 L 491.5 467 L 491.5 466 Z " /><path fill="rgb(0,0,0)" stroke="rgb(0,0,0)" stroke-width="1" opacity="0.7764705882352941" d="M 486.5 467 L 489 467.5 L 486.5 468 L 486.5 467 Z " /><path fill="rgb(0,0,0)" stroke="rgb(0,0,0)" stroke-width="1" opacity="0.7764705882352941" d="M 345.5 468 L 346.5 470 L 345.5 468 Z " /><path fill="rgb(0,0,0)" stroke="rgb(0,0,0)" stroke-width="1" opacity="0.7764705882352941" d="M 480.5 468 L 484 468.5 L 480.5 469 L 480.5 468 Z " /><path fill="rgb(0,0,0)" stroke="rgb(0,0,0)" stroke-width="1" opacity="0.7764705882352941" d="M 507.5 468 L 508.5 470 L 507.5 468 Z " /><path fill="rgb(0,0,0)" stroke="rgb(0,0,0)" stroke-width="1" opacity="0.7764705882352941" d="M 421.5 469 L 424 469.5 L 421.5 470 L 421.5 469 Z " /><path fill="rgb(0,0,0)" stroke="rgb(0,0,0)" stroke-width="1" opacity="0.7764705882352941" d="M 473.5 469 L 477 469.5 L 473.5 470 L 473.5 469 Z " /><path fill="rgb(0,0,0)" stroke="rgb(0,0,0)" stroke-width="1" opacity="0.7764705882352941" d="M 429.5 470 L 434 470.5 L 429.5 471 L 429.5 470 Z " /><path fill="rgb(0,0,0)" stroke="rgb(0,0,0)" stroke-width="1" opacity="0.7764705882352941" d="M 463.5 470 L 468 470.5 L 463.5 471 L 463.5 470 Z " /><path fill="rgb(0,0,0)" stroke="rgb(0,0,0)" stroke-width="1" opacity="0.7764705882352941" d="M 444.5 471 L 452 471.5 L 444.5 472 L 444.5 471 Z " /><path fill="rgb(0,0,0)" stroke="rgb(0,0,0)" stroke-width="1" opacity="0.7764705882352941" d="M 511.5 475 L 512 480.5 L 511 480.5 L 511.5 475 Z " /><path fill="rgb(0,0,0)" stroke="rgb(0,0,0)" stroke-width="1" opacity="0.7764705882352941" d="M 508.5 486 L 507.5 488 L 508.5 486 Z " /><path fill="rgb(0,0,0)" stroke="rgb(0,0,0)" stroke-width="1" opacity="0.7764705882352941" d="M 505.5 488 L 504.5 490 L 503 489.5 L 505.5 488 Z " /><path fill="rgb(0,0,0)" stroke="rgb(0,0,0)" stroke-width="1" opacity="0.7764705882352941" d="M 499.5 490 L 502 490.5 L 499.5 491 L 499.5 490 Z " /><path fill="rgb(0,0,0)" stroke="rgb(0,0,0)" stroke-width="1" opacity="0.7764705882352941" d="M 402.5 491 L 405 491.5 L 402.5 492 L 402.5 491 Z " /><path fill="rgb(0,0,0)" stroke="rgb(0,0,0)" stroke-width="1" opacity="0.7764705882352941" d="M 407.5 492 L 410 492.5 L 407.5 493 L 407.5 492 Z " /><path fill="rgb(0,0,0)" stroke="rgb(0,0,0)" stroke-width="1" opacity="0.7764705882352941" d="M 489.5 492 L 492 492.5 L 489.5 493 L 489.5 492 Z " /><path fill="rgb(0,0,0)" stroke="rgb(0,0,0)" stroke-width="1" opacity="0.7764705882352941" d="M 412.5 493 L 415 493.5 L 412.5 494 L 412.5 493 Z " /><path fill="rgb(0,0,0)" stroke="rgb(0,0,0)" stroke-width="1" opacity="0.7764705882352941" d="M 483.5 493 L 486 493.5 L 483.5 494 L 483.5 493 Z " /><path fill="rgb(0,0,0)" stroke="rgb(0,0,0)" stroke-width="1" opacity="0.7764705882352941" d="M 418.5 494 L 422 494.5 L 418.5 495 L 418.5 494 Z " /><path fill="rgb(0,0,0)" stroke="rgb(0,0,0)" stroke-width="1" opacity="0.7764705882352941" d="M 476.5 494 L 479 494.5 L 476.5 495 L 476.5 494 Z " /><path fill="rgb(0,0,0)" stroke="rgb(0,0,0)" stroke-width="1" opacity="0.7764705882352941" d="M 426.5 495 L 432 495.5 L 426.5 496 L 426.5 495 Z " /><path fill="rgb(0,0,0)" stroke="rgb(0,0,0)" stroke-width="1" opacity="0.7764705882352941" d="M 465.5 495 L 471 495.5 L 465.5 496 L 465.5 495 Z " /><path fill="rgb(0,0,0)" stroke="rgb(0,0,0)" stroke-width="1" opacity="0.7764705882352941" d="M 440.5 496 L 456 496.5 L 440.5 497 L 440.5 496 Z " /><path fill="rgb(0,0,0)" stroke="rgb(0,0,0)" stroke-width="1" opacity="0.996078431372549" d="M 85.5 60 L 86 64.5 L 85 64.5 L 85.5 60 Z " /><path fill="rgb(0,0,0)" stroke="rgb(0,0,0)" stroke-width="1" opacity="0.996078431372549" d="M 61.5 75 L 62 77.5 L 61 77.5 L 61.5 75 Z " /><path fill="rgb(0,0,0)" stroke="rgb(0,0,0)" stroke-width="1" opacity="0.996078431372549" d="M 117.5 87 L 126.5 97 L 117.5 87 Z " /><path fill="rgb(0,0,0)" stroke="rgb(0,0,0)" stroke-width="1" opacity="0.996078431372549" d="M 23.5 93 L 22.5 95 L 23.5 93 Z " /><path fill="rgb(0,0,0)" stroke="rgb(0,0,0)" stroke-width="1" opacity="0.996078431372549" d="M 143.5 94 L 141.5 97 L 143.5 94 Z " /><path fill="rgb(0,0,0)" stroke="rgb(0,0,0)" stroke-width="1" opacity="0.996078431372549" d="M 258.5 125 L 257.5 127 L 258.5 125 Z " /><path fill="rgb(0,0,0)" stroke="rgb(0,0,0)" stroke-width="1" opacity="0.996078431372549" d="M 377.5 127 L 378.5 129 L 377.5 127 Z " /><path fill="rgb(0,0,0)" stroke="rgb(0,0,0)" stroke-width="1" opacity="0.996078431372549" d="M 253.5 129 L 252.5 131 L 253.5 129 Z " /><path fill="rgb(0,0,0)" stroke="rgb(0,0,0)" stroke-width="1" opacity="0.996078431372549" d="M 382.5 131 L 385.5 135 L 382.5 131 Z " /><path fill="rgb(0,0,0)" stroke="rgb(0,0,0)" stroke-width="1" opacity="0.996078431372549" d="M 244.5 137 L 242.5 140 L 244.5 137 Z " /><path fill="rgb(0,0,0)" stroke="rgb(0,0,0)" stroke-width="1" opacity="0.996078431372549" d="M 394.5 143 L 395.5 145 L 394.5 143 Z " /><path fill="rgb(0,0,0)" stroke="rgb(0,0,0)" stroke-width="1" opacity="0.996078431372549" d="M 272.5 145 L 271.5 147 L 272.5 145 Z " /><path fill="rgb(0,0,0)" stroke="rgb(0,0,0)" stroke-width="1" opacity="0.996078431372549" d="M 236.5 146 L 235.5 148 L 236.5 146 Z " /><path fill="rgb(0,0,0)" stroke="rgb(0,0,0)" stroke-width="1" opacity="0.996078431372549" d="M 363.5 147 L 364.5 149 L 363.5 147 Z " /><path fill="rgb(0,0,0)" stroke="rgb(0,0,0)" stroke-width="1" opacity="0.996078431372549" d="M 267.5 149 L 266.5 151 L 267.5 149 Z " /><path fill="rgb(0,0,0)" stroke="rgb(0,0,0)" stroke-width="1" opacity="0.996078431372549" d="M 232.5 151 L 231.5 153 L 232.5 151 Z " /><path fill="rgb(0,0,0)" stroke="rgb(0,0,0)" stroke-width="1" opacity="0.996078431372549" d="M 369.5 152 L 375.5 159 L 369.5 152 Z " /><path fill="rgb(0,0,0)" stroke="rgb(0,0,0)" stroke-width="1" opacity="0.996078431372549" d="M 401.5 152 L 402.5 154 L 401.5 152 Z " /><path fill="rgb(0,0,0)" stroke="rgb(0,0,0)" stroke-width="1" opacity="0.996078431372549" d="M 257.5 159 L 255.5 162 L 257.5 159 Z " /><path fill="rgb(0,0,0)" stroke="rgb(0,0,0)" stroke-width="1" opacity="0.996078431372549" d="M 396.5 209 L 397 213.5 L 396 213.5 L 396.5 209 Z " /><path fill="rgb(0,0,0)" stroke="rgb(0,0,0)" stroke-width="1" opacity="0.996078431372549" d="M 137.5 237 L 138.5 239 L 137.5 237 Z " /><path fill="rgb(0,0,0)" stroke="rgb(0,0,0)" stroke-width="1" opacity="0.996078431372549" d="M 141.5 242 L 142.5 244 L 141.5 242 Z " /><path fill="rgb(0,0,0)" stroke="rgb(0,0,0)" stroke-width="1" opacity="0.996078431372549" d="M 112.5 244 L 113.5 246 L 112.5 244 Z " /><path fill="rgb(0,0,0)" stroke="rgb(0,0,0)" stroke-width="1" opacity="0.996078431372549" d="M 115.5 248 L 116.5 250 L 115.5 248 Z " /><path fill="rgb(0,0,0)" stroke="rgb(0,0,0)" stroke-width="1" opacity="0.996078431372549" d="M 148.5 250 L 156.5 259 L 148.5 250 Z " /><path fill="rgb(0,0,0)" stroke="rgb(0,0,0)" stroke-width="1" opacity="0.996078431372549" d="M 118.5 252 L 119.5 254 L 118.5 252 Z " /><path fill="rgb(0,0,0)" stroke="rgb(0,0,0)" stroke-width="1" opacity="0.996078431372549" d="M 122.5 257 L 124.5 260 L 122.5 257 Z " /><path fill="rgb(0,0,0)" stroke="rgb(0,0,0)" stroke-width="1" opacity="0.996078431372549" d="M 128.5 264 L 142.5 279 L 128.5 264 Z " /><path fill="rgb(0,0,0)" stroke="rgb(0,0,0)" stroke-width="1" opacity="0.996078431372549" d="M 163.5 264 L 164.5 266 L 163.5 264 Z " /><path fill="rgb(0,0,0)" stroke="rgb(0,0,0)" stroke-width="1" opacity="0.996078431372549" d="M 372.5 267 L 367.5 273 L 372.5 267 Z " /><path fill="rgb(0,0,0)" stroke="rgb(0,0,0)" stroke-width="1" opacity="0.996078431372549" d="M 168.5 268 L 169.5 270 L 168.5 268 Z " /><path fill="rgb(0,0,0)" stroke="rgb(0,0,0)" stroke-width="1" opacity="0.996078431372549" d="M 397.5 275 L 396.5 277 L 397.5 275 Z " /><path fill="rgb(0,0,0)" stroke="rgb(0,0,0)" stroke-width="1" opacity="0.996078431372549" d="M 362.5 276 L 361.5 278 L 362.5 276 Z " /><path fill="rgb(0,0,0)" stroke="rgb(0,0,0)" stroke-width="1" opacity="0.996078431372549" d="M 358.5 279 L 357.5 281 L 358.5 279 Z " /><path fill="rgb(0,0,0)" stroke="rgb(0,0,0)" stroke-width="1" opacity="0.996078431372549" d="M 392.5 281 L 390.5 284 L 392.5 281 Z " /><path fill="rgb(0,0,0)" stroke="rgb(0,0,0)" stroke-width="1" opacity="0.996078431372549" d="M 148.5 283 L 149.5 285 L 148.5 283 Z " /><path fill="rgb(0,0,0)" stroke="rgb(0,0,0)" stroke-width="1" opacity="0.996078431372549" d="M 383.5 290 L 381.5 293 L 383.5 290 Z " /><path fill="rgb(0,0,0)" stroke="rgb(0,0,0)" stroke-width="1" opacity="0.996078431372549" d="M 376.5 296 L 375.5 298 L 376.5 296 Z " /><path fill="rgb(0,0,0)" stroke="rgb(0,0,0)" stroke-width="1" opacity="0.996078431372549" d="M 372.5 299 L 371.5 301 L 372.5 299 Z " /><path fill="rgb(0,0,0)" stroke="rgb(0,0,0)" stroke-width="1" opacity="0.996078431372549" d="M 230.5 324 L 231.5 326 L 230.5 324 Z " /><path fill="rgb(0,0,0)" stroke="rgb(0,0,0)" stroke-width="1" opacity="0.996078431372549" d="M 289.5 383 L 290.5 385 L 289.5 383 Z " /><path fill="rgb(0,0,0)" stroke="rgb(0,0,0)" stroke-width="1" opacity="0.996078431372549" d="M 295.5 391 L 296.5 393 L 295.5 391 Z " /><path fill="rgb(0,0,0)" stroke="rgb(0,0,0)" stroke-width="1" opacity="0.996078431372549" d="M 267.5 394 L 268.5 396 L 267.5 394 Z " /><path fill="rgb(0,0,0)" stroke="rgb(0,0,0)" stroke-width="1" opacity="0.996078431372549" d="M 299.5 396 L 300.5 398 L 299.5 396 Z " /><path fill="rgb(0,0,0)" stroke="rgb(0,0,0)" stroke-width="1" opacity="0.996078431372549" d="M 272.5 401 L 273.5 403 L 272.5 401 Z " /><path fill="rgb(0,0,0)" stroke="rgb(0,0,0)" stroke-width="1" opacity="0.996078431372549" d="M 304.5 402 L 306.5 405 L 304.5 402 Z " /><path fill="rgb(0,0,0)" stroke="rgb(0,0,0)" stroke-width="1" opacity="0.996078431372549" d="M 275.5 405 L 276.5 407 L 275.5 405 Z " /><path fill="rgb(0,0,0)" stroke="rgb(0,0,0)" stroke-width="1" opacity="0.996078431372549" d="M 279.5 410 L 280.5 412 L 279.5 410 Z " /><path fill="rgb(0,0,0)" stroke="rgb(0,0,0)" stroke-width="1" opacity="0.996078431372549" d="M 315.5 414 L 317.5 417 L 315.5 414 Z " /><path fill="rgb(0,0,0)" stroke="rgb(0,0,0)" stroke-width="1" opacity="0.996078431372549" d="M 283.5 415 L 285.5 418 L 283.5 415 Z " /><path fill="rgb(0,0,0)" stroke="rgb(0,0,0)" stroke-width="1" opacity="0.996078431372549" d="M 291.5 424 L 306.5 440 L 291.5 424 Z " /><path fill="rgb(0,0,0)" stroke="rgb(0,0,0)" stroke-width="1" opacity="0.996078431372549" d="M 327.5 425 L 328.5 427 L 327.5 425 Z " /><path fill="rgb(0,0,0)" stroke="rgb(0,0,0)" stroke-width="1" opacity="0.996078431372549" d="M 333.5 430 L 334.5 432 L 333.5 430 Z " /><path fill="rgb(0,0,0)" stroke="rgb(0,0,0)" stroke-width="1" opacity="0.996078431372549" d="M 312.5 444 L 314.5 447 L 312.5 444 Z " /><path fill="rgb(0,0,0)" stroke="rgb(0,0,0)" stroke-width="1" opacity="0.996078431372549" d="M 318.5 449 L 319.5 451 L 318.5 449 Z " /><path fill="rgb(0,0,0)" stroke="rgb(0,0,0)" stroke-width="1" opacity="0.996078431372549" d="M 323.5 453 L 324.5 455 L 323.5 453 Z " /><path fill="rgb(0,0,0)" stroke="rgb(0,0,0)" stroke-width="1" opacity="0.996078431372549" d="M 505.5 467 L 506.5 469 L 505.5 467 Z " /><path fill="rgb(0,0,0)" stroke="rgb(0,0,0)" stroke-width="1" opacity="0.996078431372549" d="M 452.5 471 L 456 471.5 L 452.5 472 L 452.5 471 Z " /><path fill="rgb(0,0,0)" stroke="rgb(0,0,0)" stroke-width="1" opacity="0.996078431372549" d="M 509.5 484 L 508.5 486 L 509.5 484 Z " /><path fill="rgb(0,0,0)" stroke="rgb(0,0,0)" stroke-width="1" opacity="1" d="M 69.5 16 Q 80.2 14.8 84.5 20 L 143 78.5 Q 147.1 81.4 146 89.5 Q 144.6 95.6 139.5 98 L 131.5 99 L 128.5 98 L 116.5 87 L 85.5 56 L 85 64.5 L 86 65.5 L 87 97.5 L 88 98.5 L 88 106.5 L 89 107.5 L 91 126.5 L 96 150.5 L 104 176.5 Q 121.8 226.2 156.5 259 Q 183 284.7 222 297 L 214 257.5 L 213 237.5 L 212 236.5 L 212 215.5 L 213 214.5 L 213 203.5 L 214 202.5 L 215 191.5 L 223 166.5 Q 234.1 145.6 251.5 131 Q 265.8 118.3 285.5 111 L 302.5 107 L 318.5 106 L 319.5 107 L 334.5 108 L 356.5 115 Q 378.7 125.3 394 142.5 Q 406.3 156.2 414 174.5 L 420 195.5 L 421 218.5 L 418 235.5 Q 413.7 251.2 406 263.5 Q 396.8 278.3 384.5 290 Q 361.5 311.5 327.5 322 L 306.5 327 L 292.5 328 L 291.5 329 L 260 329 Q 280.2 381 317.5 417 Q 345.2 445.3 385.5 461 L 397.5 465 L 420.5 470 L 455.5 472 L 456.5 471 L 477.5 470 L 495.5 466 L 502.5 466 L 509 470.5 Q 512.2 473.8 511 481.5 L 508 487 L 498.5 491 L 481.5 494 L 474.5 494 L 473.5 495 L 463.5 495 L 462.5 496 L 433.5 496 L 432.5 495 L 423.5 495 L 422.5 494 L 410.5 493 L 393.5 489 Q 370.6 482.4 351.5 472 Q 313.5 450.5 286 418.5 Q 268.2 397.8 254 373.5 L 240 346.5 L 233 327.5 L 230.5 324 L 219.5 322 L 204.5 317 L 170.5 300 Q 144.6 283.4 125 260.5 Q 93.2 223.8 77 171.5 L 71 149.5 L 65 117.5 L 64 102.5 L 63 101.5 L 63 91.5 L 62 90.5 L 61 57 L 59.5 57 L 19.5 97 Q 16.8 99.8 10.5 99 L 3 94.5 Q -0.3 90.8 1 82.5 L 63.5 19 L 69.5 16 Z M 307 131 Q 282 135 268 149 Q 256 159 247 173 L 240 191 L 237 208 L 237 246 Q 240 247 238 254 L 242 277 L 249 303 Q 254 305 263 304 L 264 305 L 295 304 L 320 299 Q 348 291 368 273 Q 381 260 390 243 L 396 224 L 396 215 L 397 214 L 396 200 L 392 185 Q 386 170 376 159 Q 362 143 342 135 L 326 131 L 307 131 Z " /></svg>